<?xml version="1.0" encoding="UTF-8" standalone="no"?>
<!-- Created with Inkscape (http://www.inkscape.org/) -->

<svg
   xmlns:dc="http://purl.org/dc/elements/1.1/"
   xmlns:cc="http://creativecommons.org/ns#"
   xmlns:rdf="http://www.w3.org/1999/02/22-rdf-syntax-ns#"
   xmlns:svg="http://www.w3.org/2000/svg"
   xmlns="http://www.w3.org/2000/svg"
   xmlns:sodipodi="http://sodipodi.sourceforge.net/DTD/sodipodi-0.dtd"
   xmlns:inkscape="http://www.inkscape.org/namespaces/inkscape"
   id="svg2985"
   version="1.1"
   inkscape:version="0.92.2 (5c3e80d, 2017-08-06)"
   width="300"
   height="300"
   sodipodi:docname="pts-logo-02-4.svg"
   viewBox="0 0 281.25 281.25"
   inkscape:export-filename="/home/sjn/src/pts-logo/pts-logo-02-3.png"
   inkscape:export-xdpi="192"
   inkscape:export-ydpi="192">
  <metadata
     id="metadata2991">
    <rdf:RDF>
      <cc:Work
         rdf:about="">
        <dc:format>image/svg+xml</dc:format>
        <dc:type
           rdf:resource="http://purl.org/dc/dcmitype/StillImage" />
        <dc:title></dc:title>
      </cc:Work>
    </rdf:RDF>
  </metadata>
  <defs
     id="defs2989">
    <clipPath
       clipPathUnits="userSpaceOnUse"
       id="clipPath5949">
      <path
         id="path5951"
         style="fill:#f2f2f2;fill-opacity:1;stroke-width:0.32943961"
         d="m 181.8033,98.056593 3.49074,-3.490741 -3.49066,-3.490161 z m 22.59363,22.943827 v -7.33432 l -3.66791,3.6674 3.66766,3.66666 z m -122.74952,77.21272 3.49074,-3.49074 -3.49074,-3.49041 v 6.98082 z m -3.727608,3.72728 3.49074,-3.49041 -3.49041,-3.49075 v 6.98083 z m -3.72662,3.72662 3.490741,-3.49074 -3.491158,-3.48967 v 6.98083 z m -3.727609,3.72761 3.490742,-3.49075 -3.490744,-3.49074 z m -3.726622,3.72662 3.490083,-3.49008 -3.490083,-3.49041 v 6.98082 z m -3.727939,3.7276 3.491074,-3.49074 -3.490741,-3.49107 -4e-6,6.98148 z m -3.72728,3.72762 3.490741,-3.49107 -3.490741,-3.49042 v 6.98083 z m 44.956968,0.58113 v -7.33464 l -3.66691,3.66641 3.66725,3.66674 z m -48.683915,3.14516 3.49,-3.48951 -3.490164,-3.49066 v 6.98082 z m 44.956315,0.58145 v -7.33431 l -3.666664,3.66667 3.666574,3.66806 z m -3.726296,3.72729 2e-6,-7.33465 -3.667977,3.66765 3.667652,3.66667 z m -3.727936,3.72695 -3e-6,-7.33465 -1.647855,1.64786 -2.018888,2.01938 z m -3.726619,3.72728 -3e-6,-7.33465 -3.667651,3.66765 3.667654,3.66666 z m -3.727284,3.72694 v -7.33431 l -3.666661,3.66667 3.666579,3.66807 z m -3.726947,3.72729 v -7.33432 l -3.66724,3.66675 3.666661,3.66765 z m -3.72695,3.72694 -2e-6,-7.33463 -3.667648,3.66765 3.667653,3.66665 z m 33.253462,-78.79091 3.49074,-3.49074 -3.49074,-3.49041 v 6.98083 z m -3.7276,3.72729 3.49074,-3.49041 -3.49041,-3.49075 v 6.98083 z m -3.72663,3.72662 3.49075,-3.49074 -3.49116,-3.48968 v 6.98084 z m -3.7276,3.72761 3.49074,-3.49075 -3.49075,-3.49074 z m -3.726626,3.72662 3.490083,-3.49009 -3.490083,-3.49041 v 6.98082 z m -3.727939,3.7276 3.491074,-3.49074 -3.490741,-3.49107 -5e-6,6.98148 z m -3.727281,3.72761 3.490742,-3.49107 -3.490742,-3.49041 v 6.98082 z m 44.956966,0.58113 v -7.33464 l -3.66691,3.66642 3.66724,3.66674 z m -48.683913,3.14516 3.49,-3.4895 -3.490164,-3.49067 v 6.98083 z m 44.956313,0.58146 v -7.33431 l -3.66666,3.66667 3.66657,3.66806 z m -3.72629,3.72729 v -7.33465 l -3.66798,3.66765 3.66766,3.66666 z m -3.72794,3.72694 v -7.33464 l -1.64786,1.64786 -2.01888,2.01938 z m -3.72661,3.72728 -1e-5,-7.33464 -3.66765,3.66765 3.66766,3.66666 z m -3.72729,3.72695 v -7.33431 l -3.66667,3.66667 3.66659,3.66806 z m -3.72695,3.72729 v -7.33432 l -3.66724,3.66675 3.66666,3.66765 z m -3.72695,3.72694 v -7.33464 l -3.66765,3.66765 3.66765,3.66666 z m 33.25346,-78.79091 3.49074,-3.49074 -3.49074,-3.49041 v 6.98082 z m -3.7276,3.72729 3.49074,-3.49041 -3.49041,-3.49076 v 6.98084 z m -3.72663,3.72661 3.49075,-3.49074 -3.49116,-3.48967 v 6.98083 z m -3.7276,3.72762 3.49074,-3.49075 -3.49074,-3.49075 z m -3.72663,3.72661 3.49008,-3.49008 -3.49008,-3.49041 v 6.98082 z m -3.72793,3.7276 3.49107,-3.49073 -3.49074,-3.49107 v 6.98148 z m -3.72729,3.72762 3.49074,-3.49107 -3.49074,-3.49041 v 6.98082 z m 44.95697,0.58113 v -7.33464 l -3.6669,3.66641 3.66725,3.66675 z m -48.68391,3.14516 3.49,-3.4895 -3.49016,-3.49067 v 6.98083 z m 44.95631,0.58146 1e-5,-7.33431 -3.66667,3.66667 3.66657,3.66806 z m -3.72629,3.72728 1e-5,-7.33464 -3.66798,3.66765 3.66765,3.66666 z m -3.72794,3.72695 v -7.33464 l -1.64785,1.64785 -2.01889,2.01939 z m -3.72661,3.72728 v -7.33465 l -3.66766,3.66766 3.66766,3.66666 z m -3.72729,3.72695 v -7.33431 l -3.66667,3.66665 3.66659,3.66808 z m -3.72694,3.72729 v -7.33433 l -3.66725,3.66676 3.66666,3.66764 z m -3.72696,3.72694 v -7.33464 l -3.66765,3.66765 3.66765,3.66665 z m 40.64758,-86.18535 3.49041,-3.490737 -3.49041,-3.490743 v 6.98083 z m -3.72696,3.72695 3.49074,-3.49074 -3.49065,-3.490159 z m 26.32091,19.21688 v -7.33432 l -3.66723,3.66674 3.66657,3.66808 z m -3.72728,3.72695 v -7.33431 l -3.6679,3.6674 3.66766,3.66666 z m -26.26079,-19.27634 3.49074,-3.49074 -3.49074,-3.49042 v 6.98083 z m -3.7276,3.72728 3.49074,-3.49042 -3.49041,-3.49074 v 6.98084 z m -3.72662,3.72662 3.49074,-3.49074 -3.49116,-3.48967 v 6.98083 z m -3.72761,3.7276 3.49074,-3.49074 -3.49074,-3.49074 z m -3.72663,3.72663 3.4901,-3.49008 -3.4901,-3.49041 v 6.98082 z m -3.72793,3.7276 3.49107,-3.49074 -3.49074,-3.49106 v 6.98147 z m -3.72728,3.72762 3.49075,-3.49107 -3.49075,-3.49041 v 6.98082 z m 44.95697,0.58113 v -7.33464 l -3.66691,3.66641 3.66725,3.66675 z m -48.68392,3.14516 3.49,-3.48951 -3.49016,-3.49066 v 6.98082 z m 44.95632,0.58146 v -7.33431 l -3.66667,3.66666 3.66657,3.66806 z m -3.72629,3.72728 v -7.33465 l -3.66798,3.66766 3.66765,3.66666 z m -3.72794,3.72695 -1e-5,-7.33464 -1.64785,1.64785 -2.01889,2.01938 z m -3.72662,3.72728 v -7.33465 l -3.66765,3.66765 3.66765,3.66667 z m -3.72729,3.72694 v -7.3343 l -3.66666,3.66665 3.66659,3.66808 z m -3.72694,3.72729 v -7.33432 l -3.66725,3.66674 3.66667,3.66766 z m -3.72696,3.72695 v -7.33464 l -3.66765,3.66765 3.66766,3.66665 z m -115.532803,69.9947 3.490742,-3.49074 -3.490742,-3.49041 2e-6,6.98082 z m -3.727276,3.72728 3.490411,-3.49041 -3.490166,-3.49066 v 6.98082 z m -3.726953,3.72695 3.49008,-3.49008 -3.49008,-3.49107 3e-6,6.98082 z m -3.72695,4.061 c 0.540281,-0.75442 1.157979,-1.49236 1.867925,-2.2023 l 1.62216,-1.62184 -3.490416,-3.49074 v 7.31455 z m 10.908075,10.54898 a 2.8809492,2.8809492 0 0 1 -2.880534,-2.88202 2.8809492,2.8809492 0 0 1 2.880619,-2.88062 2.8809492,2.8809492 0 0 1 2.880621,2.88063 2.8809492,2.8809492 0 0 1 -2.880619,2.88161 z m -0.702647,5.37972 c 1.99084,0.018 4.227307,-0.87922 6.548008,-3.20025 l 122.527626,-122.52663 20.218,-20.218 L 189.4915,98.753634 46.747444,241.49819 c -4.642386,4.64206 -3.588861,8.94587 -0.90953,11.62487 1.339172,1.33918 3.084713,2.27296 5.075887,2.29137 z m 23.569708,-4.50011 v -7.33398 l -3.666661,3.66666 z m -3.72728,3.72695 2e-6,-7.33398 -3.666663,3.66666 z m -3.726948,3.72761 -2e-6,-7.33463 -3.667651,3.66764 3.667653,3.66666 z m -15.32059,7.9395 3.799759,-5.22953 2.234916,4.13447 1.99377,-6.68236 3.564616,3.56512 2e-6,-7.33465 -1.623147,1.62348 c -0.423332,0.42333 -0.856531,0.81439 -1.297337,1.17676 l -0.510054,0.51055 -0.577178,0.31165 c -1.013026,0.705 -2.057022,1.26176 -3.113862,1.68278 l -0.513927,0.27772 -0.456274,0.0724 c -1.40407,0.44738 -2.820002,0.66448 -4.203647,0.67008 -1.403416,0.006 -2.773223,-0.20622 -4.064295,-0.60617 l -0.420695,-0.0626 -0.239831,-0.16077 C 44.757921,259.69702 43.361094,258.86749 42.17182,257.81 l -0.0065,0.01 -0.02635,-0.0382 c -0.168021,-0.15088 -0.333719,-0.3054 -0.493498,-0.46517 -3.199519,-3.19952 -4.617096,-8.1767 -3.244978,-13.07546 l 0.02207,-0.25137 -0.03228,-0.003 0.218748,-0.42663 c 0.457921,-1.37046 1.13986,-2.72775 2.067894,-4.03168 l 7.45e-4,-7.4e-4 -4.689243,-2.40655 2.203953,6.8474 -5.020002,-0.4431 4.656956,5.55863 -4.93698,1.40671 6.144709,3.42091 -4.055403,2.84141 7.06549,1.24297 -2.666813,3.98161 6.988404,-1.38134 -0.751121,5.01572 5.355038,-3.96052 0.736628,4.65597 z M 252.28001,69.099153 267.92641,49.540327 252.16537,21.171626 227.76114,45.575521 c 0.14825,0.0017 0.29484,-0.0011 0.44341,0.0032 1.82082,0.05139 3.55302,0.360079 5.19363,0.882898 l 16.14583,-16.145833 10.89128,20.842323 -10.40437,12.508825 c 0.81702,1.750971 1.5655,3.56783 2.24876,5.432457 z m -27.59453,18.796179 6.79305,-9.510922 c 1.21234,-4.162797 -0.73267,-8.460998 -3.51281,-10.988789 -1.42779,-1.297991 -3.01042,-2.002993 -4.04487,-2.096553 -1.03443,-0.09356 -1.45118,0.0066 -2.12356,1.052889 l -0.0396,0.06095 -4.90009,6.859919 c 2.31168,4.873732 4.93665,9.777768 7.82749,14.622178 z m 38.12671,3.457798 0.87961,-14.882764 -5.91937,-0.349866 -0.26455,4.481368 -10.05317,-0.594636 -0.39105,5.917722 10.09403,0.596282 -0.26488,4.482358 5.91937,0.349205 z m -51.1511,6.286694 c -1.88768,-3.19886 -3.65908,-6.424732 -5.31056,-9.655216 l -1.81027,2.53438 7.12083,7.121167 z m 23.81684,6.376966 10.77366,-10.773666 0.2965,-3.752975 -5.63836,-0.372266 0.83085,-12.566475 5.79912,0.383468 0.21413,-2.707996 c -2.02341,-6.289989 -4.69451,-12.03937 -7.96256,-16.088843 -3.35764,-4.160162 -7.08854,-6.500826 -11.7534,-6.631616 -6.18458,-0.174606 -11.91254,2.642107 -17.15294,7.254261 0.93891,2.711945 1.9964,5.464743 3.16592,8.241917 l 2.84042,-3.976996 -0.0817,0.120256 c 1.73417,-2.698108 4.85133,-4.004339 7.64629,-3.751658 2.79431,0.25268 5.33561,1.64654 7.49936,3.613954 4.32818,3.935813 7.37616,10.671207 5.07008,17.587461 l -0.14067,0.42267 -8.81382,12.340806 c 2.33408,3.62153 4.81179,7.186398 7.40777,10.658028 z m -31.3106,1.0384 1.63139,-4.89153 -9.00358,-9.003584 6.60032,-9.240779 c -1.46272,-3.166573 -2.79563,-6.323266 -3.99512,-9.450964 -3.90583,5.900921 -7.25656,12.225505 -10.02649,17.793032 l 2.20889,2.208893 12.58459,12.584592 z m 45.11742,15.26063 c 2.4675,-4.37397 2.98142,-8.96076 1.83431,-13.22569 -0.66711,-2.48134 -1.80072,-4.83025 -3.26342,-7.06516 l -4.33279,4.33312 c 0.85818,1.45118 1.49631,2.88392 1.8699,4.27217 0.6503,2.41874 0.69049,4.74295 -0.2998,7.16202 1.37607,1.54177 2.77323,3.05225 4.1918,4.5232 z m -7.55274,7.26315 3.26072,-3.26022 C 228.13102,106.82618 214.22076,84.601516 206.45818,63.761165 l -2.84373,2.844052 c 7.19175,20.579513 21.22126,43.409353 38.11789,60.973413 z m -21.24655,16.96119 5.08985,-3.04073 -10.88206,-18.21339 0.0811,-9.32149 7.69111,-1e-5 c -1.55694,-2.10939 -3.06874,-4.24977 -4.5331,-6.41483 l -1.97795,2.76959 -5.46803,-5.46805 -1.63073,4.89152 0.0263,0.0264 -0.13277,15.12951 11.73596,19.64185 z"
         inkscape:connector-curvature="0" />
    </clipPath>
  </defs>
  <sodipodi:namedview
     pagecolor="#ffffff"
     bordercolor="#666666"
     borderopacity="1"
     objecttolerance="10"
     gridtolerance="10"
     guidetolerance="10"
     inkscape:pageopacity="0"
     inkscape:pageshadow="2"
     inkscape:window-width="1853"
     inkscape:window-height="1025"
     id="namedview2987"
     showgrid="false"
     inkscape:zoom="2.2183333"
     inkscape:cx="53.403409"
     inkscape:cy="111.72063"
     inkscape:window-x="67"
     inkscape:window-y="27"
     inkscape:window-maximized="1"
     inkscape:current-layer="svg2985"
     borderlayer="true"
     showguides="true"
     inkscape:guide-bbox="true"
     inkscape:snap-to-guides="false"
     inkscape:snap-grids="false"
     inkscape:measure-start="0,0"
     inkscape:measure-end="0,0" />
  <path
     style="fill:#000000;fill-opacity:1;stroke-width:0.54931647"
     inkscape:connector-curvature="0"
     d="M -5e-6,-7.5e-6 H 281.25 V 281.25001 H -5e-6 Z"
     id="path110-5" />
  <path
     style="fill:#a90000;fill-opacity:1;stroke-width:0.82385647"
     d="m 142.6284,234.18615 c 0,-7.39403 -0.10747,-7.92693 -1.5987,-7.92693 -1.47999,0 -1.5937,0.51036 -1.53111,6.87262 0.0739,7.51479 0.60221,9.82375 2.13104,9.31414 0.70927,-0.23641 0.99877,-2.63062 0.99877,-8.25983 z m -11.91036,2.5446 c 2.10433,-2.10433 2.7178,-3.38059 2.7178,-5.65408 0,-2.31831 -0.28232,-2.8819 -1.34138,-2.67784 -0.73776,0.14214 -1.62314,1.33758 -1.96751,2.65651 -0.34437,1.31894 -1.75913,3.35691 -3.14391,4.52884 -2.49381,2.11048 -2.59121,3.86437 -0.21459,3.86437 0.67749,0 2.4548,-1.22301 3.94959,-2.7178 z m 26.34039,1.85101 c 0.29465,-0.47674 -0.59728,-1.82565 -1.98208,-2.99758 -1.38479,-1.17193 -2.79955,-3.2099 -3.14392,-4.52884 -0.34436,-1.31893 -1.22973,-2.51437 -1.9675,-2.65651 -1.05907,-0.20406 -1.34138,0.35953 -1.34138,2.67784 0,4.59834 6.60128,10.47194 8.43488,7.50509 z m -36.41224,-14.3581 c 0,-0.46009 -1.11843,-1.44929 -2.48539,-2.19822 C 109.24844,217.14253 98.798465,209.3773 92.987476,203.31946 81.646795,191.49702 76.541085,179.72283 76.417893,165.1087 c -0.0823,-9.7676 1.177184,-14.8588 5.932583,-23.9806 4.597564,-8.81905 9.927272,-15.47643 24.585024,-30.70939 16.36938,-17.011731 20.13861,-21.501551 22.98409,-27.378087 2.02073,-4.173269 2.29015,-5.694627 2.57106,-14.518825 0.34879,-10.9558 -0.31805,-18.519972 -1.63267,-18.519972 -0.59791,0 -0.71176,2.842857 -0.36958,9.228016 1.09518,20.435771 -2.69972,26.776681 -26.24947,43.860318 -16.218583,11.76542 -23.661945,18.15517 -29.282253,25.13736 -7.963216,9.89282 -11.486858,18.45596 -12.369974,30.0614 -2.128434,27.97089 15.596698,52.22457 46.868537,64.13124 6.89981,2.62709 11.19095,3.31864 11.19095,1.8035 z m 54.10297,-2.26956 c 10.75057,-4.47687 18.92741,-9.89283 26.6317,-17.63961 11.74861,-11.81341 16.64238,-22.85682 17.37363,-39.20579 0.64127,-14.33687 -2.47213,-23.82195 -11.34481,-34.5624 -6.07984,-7.35968 -12.6234,-12.62348 -30.26873,-24.34892 C 153.39743,90.419667 147.8242,84.137827 147.8242,73.153166 c 0,-2.921314 0.52637,-7.060484 1.16972,-9.198153 1.09671,-3.644106 1.06803,-6.157025 -0.0374,-3.276328 -1.04621,2.726371 -3.43067,1.471168 -4.71777,-2.483491 l -1.23576,-3.796924 0.46792,3.597089 c 1.66038,12.763959 1.86741,18.112471 1.13363,29.285052 -0.99205,15.105179 -2.8481,25.430439 -7.94648,44.206459 -5.05949,18.63287 -5.97026,25.38718 -5.34204,39.61698 0.53111,12.03005 2.21258,21.02829 6.12427,32.77348 3.63081,10.90181 4.30724,11.72919 10.98542,13.43698 3.67456,0.93968 7.15172,2.52651 9.92183,4.52789 2.59765,1.87679 5.20207,3.09834 6.66274,3.12502 1.31894,0.0241 5.70144,-1.3318 9.73888,-3.01312 z m -2.41147,-5.42035 c -0.9983,-0.99829 -0.53386,-1.84717 3.36776,-6.15547 12.28588,-13.5665 17.79216,-27.57648 17.9492,-45.66926 0.10698,-12.32484 -2.61552,-20.49171 -10.92535,-32.77348 -3.75802,-5.55429 -16.98144,-19.40549 -23.37775,-24.48761 -4.69467,-3.7301 -9.51394,-10.08527 -10.37499,-13.681511 -0.87178,-3.641067 1.56947,-2.679626 4.40127,1.733345 1.38758,2.162367 4.39268,5.337316 6.67799,7.055456 2.28531,1.71815 9.04485,6.75902 15.02119,11.20194 20.56272,15.28674 29.71307,28.319 31.77171,45.2505 1.19123,9.79731 -0.70154,19.92123 -5.48179,29.32073 -4.95393,9.74098 -13.98653,20.35077 -21.72483,25.51822 -4.75943,3.17821 -6.26096,3.7306 -7.30441,2.68714 z m -40.24958,1.03185 c 0.23211,-0.60488 -1.82601,-4.47175 -4.5736,-8.59305 -7.27549,-10.91305 -10.44183,-16.93619 -13.39407,-25.47873 -2.4904,-7.20616 -2.62542,-8.18559 -2.64476,-19.18448 -0.0292,-16.62948 1.77129,-21.90133 14.96156,-43.80667 12.43858,-20.657006 14.12208,-28.654922 12.72117,-60.435534 -0.50209,-11.390376 -1.07186,-20.868762 -1.26616,-21.063061 -1.31415,-1.31415 -1.59074,2.061635 -1.10756,13.517977 0.96197,22.808469 -0.50948,35.516818 -5.31899,45.938075 -3.27506,7.096413 -6.93585,12.476223 -16.79574,24.682523 -13.72406,16.99008 -17.597771,26.00074 -17.525881,40.76702 0.04927,10.1211 1.421045,16.34575 5.510451,25.00463 4.42818,9.37621 12.57627,18.83801 22.78778,26.46184 4.7018,3.51034 5.97764,3.93066 6.6458,2.18946 z"
     id="path2995"
     inkscape:connector-curvature="0"
     sodipodi:nodetypes="ssccssscccssccccscscscssccssssssscssssscsscscsssssccccssssccssssccsscssscsssssss" />
  <g
     id="g6083"
     style="display:inline;fill:#000000"
     transform="rotate(15,127.16768,154.16375)">
    <g
       id="g6068"
       style="fill:#000000">
      <path
         style="fill:#000000;fill-opacity:1;stroke-width:0.48272845"
         d="m 261.62695,71.822266 -2.29687,1.326172 c -9.59144,5.537608 -19.18198,11.075661 -28.77344,16.613281 3.6137,0.101294 7.24619,3.047672 10.2793,3.072265 4.5056,-1.780894 10.91296,-7.890759 14.31836,-7.166015 -0.23072,5.35798 6.48194,13.391542 -0.14649,16.283201 -2.894,2.76442 -9.2592,4.02562 -7.05273,8.94922 -0.71022,7.56259 3.15507,4.58128 7.45898,0.79492 4.05197,-3.82999 11.16217,-6.55943 13.43164,-11.03125 -2.40669,-9.613463 -4.81369,-19.227931 -7.21875,-28.841794 z m -31.72851,19.380859 c -4.36286,0.03764 -8.68944,1.565187 -12.53711,3.576172 0.26504,4.113795 0.79555,8.201833 1.34765,12.285153 3.38185,-3.20111 9.13848,-9.135313 13.53711,-3.90429 5.42316,5.3212 4.40005,15.39288 -2.96875,18.54687 -5.18333,2.58297 -6.73304,6.27909 -3.67968,11.19727 1.39751,4.35731 2.61738,9.64065 7.38672,4.57812 5.92068,-1.1327 9.08047,-8.21298 12.42578,-9.07422 1.38815,2.42804 4.65803,8.44371 10.00976,6.17383 0.4133,-4.76439 6.64761,-12.44678 2.92383,-15.13476 -5.43155,-5.50565 -9.48426,4.9556 -11.36523,-1.45313 1.03192,-7.73511 -0.94539,-16.74154 -6.26172,-22.777343 -1.75532,-1.768963 -4.03077,-2.978374 -6.45899,-3.517578 -1.44568,-0.35563 -2.90509,-0.508641 -4.35937,-0.496094 z M 216.54883,95.75 c -0.89083,0.514841 -1.78106,1.030067 -2.67188,1.544922 -6.31158,1.347404 -2.9603,7.827978 -2.86133,12.306638 2.76685,17.69605 8.78494,34.87078 17.54297,50.48828 5.64725,-2.02063 7.78322,-4.9491 3.60938,-9.80078 -8.6008,-17.06412 -14.05432,-35.55728 -15.61914,-54.53906 z m -7.59766,4.59961 -2.89258,2.61914 c -4.49772,3.98207 -9.55027,9.4808 -13.57421,14.03711 -2.12473,-4.20354 -4.19896,-10.11289 -4.98438,-2.01758 -2.84939,-5.54552 -3.41302,6.28157 -6.29102,0.50586 -0.77757,9.20966 -4.43711,-3.50121 -5.03125,7.10352 -2.05234,-4.63015 -5.61482,1.48098 -2.24609,5.64062 0.10768,0.13296 0.20357,0.23892 0.30664,0.36133 -0.009,0.005 -0.0199,0.0102 -0.0293,0.0156 4.90037,7.02967 7.24192,13.70229 8.91602,18.98438 7.5e-4,-4.4e-4 0.001,-0.002 0.002,-0.002 0.79596,3.47759 3.85297,11.42828 4.87696,6.36914 1.23851,-2.83369 3.83068,4.61495 4.28906,-4.14453 3.08177,8.00866 3.23648,-6.22447 6.15625,0.5664 1.30746,-9.14269 4.70389,2.1885 5.54687,6.26953 2.15595,5.13229 1.35866,15.562 9.21289,10.47266 5.74756,-1.89165 -1.6473,-11.10957 -1.59765,-16.17774 -4.07744,-9.05592 5.59348,-6.72309 8.2207,-6.54296 -1.79055,-3.26636 -3.55886,-11.53014 -5.63086,-13.16993 -0.0253,0.12866 -0.0537,0.20221 -0.0801,0.31641 -0.22189,-3.51196 -1.34093,-8.77841 -1.77734,-10.33984 -1.34292,-2.46385 0.13042,-9.69527 -3.98828,-4.48047 -1.14603,0.53331 -1.83752,1.30106 -2.19531,2.21875 0.29537,-2.03787 1.64586,-3.85149 4.44922,-5.2207 -0.47643,-4.32787 -1.27005,-8.92854 -1.65821,-13.38477 z m 18.73047,1.52344 c -3.57565,0.2534 -5.70679,4.59593 -8.74219,6.14843 0.94868,5.3045 2.18195,10.55489 3.67383,15.73243 4.36862,1.38818 7.33749,-4.79986 10.8086,-6.79297 3.04507,-4.97563 0.8011,-13.26463 -5.00586,-15.08203 -0.25192,-0.0215 -0.496,-0.0228 -0.73438,-0.006 z m 14.63086,17.67968 c -2.06331,9.40633 -4.75097,5.16197 0,0 z m -1.06055,14.17579 -2.16601,1.25195 c -3.6859,1.59494 -6.63433,3.20237 -4.83008,7.27344 0.98933,3.81723 -3.97976,6.38069 -0.32227,9.63086 1.37563,5.70678 4.20069,3.91171 6.49024,0.11328 3.83997,-5.34669 3.1336,-12.45769 0.82812,-18.26953 z M 65.125,182.72266 c -0.27862,-0.0186 -0.550635,0.55855 -0.814453,2.02148 l -0.773438,2.88867 c -3.077064,-8.07218 -3.240664,5.9925 -6.130859,-0.66015 -0.781741,9.33899 -4.477301,-3.48903 -5.089844,7.13672 -3.101013,-8.09792 -3.263462,6.15007 -6.193359,-0.6211 0.664166,11.83291 -7.905797,-2.20389 -5.865235,7.24414 0.04436,5.31493 -8.980398,-2.09529 -2.580078,7.0586 -6.061645,0.558 -3.802946,2.38469 -1.095703,6.37109 -11.091907,2.08565 9.372615,4.1151 -1.880859,8.65039 10.617172,-3.30753 4.063776,6.62415 8.169922,5.07812 6.660998,-3.83008 0.948637,8.5121 8.595703,-0.47656 0.570852,12.41641 4.817753,-7.12439 7.464844,3.38477 0.982228,-6.51902 3.588775,-0.73227 4.953125,-4.35547 1.019714,-5.56644 4.11868,4.66357 4.572265,-5.20313 3.076199,8.07706 3.240151,-5.99558 6.13086,0.65821 1.065498,-8.55327 4.756463,2.84197 5.455078,-8.49805 -2.700721,-5.7749 -2.366822,-5.78241 -8.371094,-1.82031 -7.113829,2.88645 -13.192656,10.35735 -21.375,9.54883 -8.121438,-1.02978 -9.58385,-12.84277 -2.712891,-16.67579 6.866643,-4.0723 13.824338,-7.99603 20.726563,-12.01171 -1.108775,-1.99315 -2.190476,-9.65223 -3.185547,-9.71875 z m 3.460938,10.58007 -1.96875,1.13868 c -6.832852,4.95413 -15.867389,7.25154 -21.550782,13.64648 -4.479715,6.16668 3.250937,15.36213 10.123047,11.80078 7.138837,-3.60156 13.867274,-8.01064 20.875,-11.86914 -2.984649,-4.63876 -5.482825,-9.5752 -7.478515,-14.7168 z m -15.902344,18.30079 c 1.018868,1.40184 -1.65473,0.3374 0,0 z"
         transform="matrix(0.90555546,-0.24264285,0.24264285,0.90555546,-35.567381,38.16642)"
         id="path110-7"
         inkscape:connector-curvature="0" />
    </g>
  </g>
  <path
     style="fill:#ffffff;fill-opacity:1;stroke-width:0.58593756"
     d="M 0,0 V 300 H 300 V 0 Z m 122.72656,101.42578 c 8.24755,0.0328 25.65482,-1.915523 34.36731,1.94212 36.95348,16.36195 53.23516,80.55952 38.73425,118.78444 -14.5009,38.22492 -46.1861,49.08348 -90.04492,32.44532 C 61.924394,237.9595 38.126056,193.48468 52.626953,155.25977 64.182359,124.79928 90.370801,101.29694 122.72656,101.42578 Z"
     id="path110"
     clip-path="url(#clipPath5949)"
     inkscape:connector-curvature="0"
     sodipodi:nodetypes="cccccssssss"
     transform="matrix(0.74604773,0.19990289,-0.19990289,0.74604773,59.452419,4.0025655)" />
  <g
     id="g8786">
    <path
       id="path2286-1-3"
       d="m 121.36608,74.014835 -12.05566,0.754394 c -1.72832,0.106715 -3.22446,1.292764 -3.72437,2.947995 -0.14287,0.475144 -0.19836,0.972253 -0.16845,1.470337 l 0.76904,12.057497 c 0.14561,2.287172 2.12849,4.032497 4.4165,3.890991 l 2.30713,-0.144656 c 2.21775,-1.7862 4.16429,-3.467485 5.85754,-5.073844 l -7.93029,0.496209 -0.69763,-10.991822 10.98815,-0.688471 0.52551,8.274534 c 1.63206,-1.797019 2.96326,-3.544444 4.021,-5.311894 0.11025,-0.184219 0.21012,-0.369797 0.31494,-0.554803 l -0.20691,-3.235472 c -0.14562,-2.287171 -2.12849,-4.032494 -4.4165,-3.890995 z"
       style="fill:#ffffff;stroke-width:1.8785001"
       inkscape:connector-curvature="0" />
    <path
       id="path2288-7-1"
       d="m 121.80919,73.53876 c -0.1561,-0.0062 -0.31322,-0.0043 -0.47241,0.0055 l -12.05383,0.756225 c -1.92399,0.118461 -3.59095,1.437442 -4.14917,3.281249 l -0.0367,0.13184 c -0.12977,0.484463 -0.17975,0.987882 -0.15015,1.501463 l 0.76904,12.059325 c 0.16587,2.545415 2.36929,4.488084 4.91639,4.330444 l 1.64795,-0.102535 c 0.43447,-0.345947 0.84925,-0.684075 1.26342,-1.021734 l -2.96996,0.18494 c -2.0276,0.12765 -3.78534,-1.421137 -3.91663,-3.449709 L 105.8881,79.158271 c -0.0255,-0.405515 0.0135,-0.804572 0.14282,-1.287225 9.3e-4,-0.0056 0.005,-0.01106 0.006,-0.0165 0.44621,-1.469315 1.77242,-2.519778 3.30505,-2.614747 l 12.05567,-0.754395 c 2.02941,-0.127168 3.78717,1.419799 3.91662,3.447873 l 0.25086,3.936769 c 0.0353,-0.05803 0.0751,-0.115884 0.10987,-0.173953 0.26207,-0.437925 0.50425,-0.878944 0.73607,-1.322016 l -0.1593,-2.499393 c -0.1538,-2.385869 -2.10062,-4.243133 -4.44213,-4.335936 z m -0.23986,4.698486 -11.92566,0.745237 0.75805,11.927494 7.84058,-0.490725 c 0.36481,-0.338794 0.70967,-0.672272 1.05286,-1.005244 l -8.01636,0.501704 -0.64087,-10.054322 10.05249,-0.62805 0.52551,8.256225 c 0.30477,-0.326241 0.59441,-0.651235 0.87891,-0.974119 z"
       style="fill:#000000;stroke-width:1.8785001"
       inkscape:connector-curvature="0" />
    <path
       d="m 201.57468,206.95002 c 1.76533,-5.85525 7.96415,-9.18261 13.82122,-7.41679 5.85343,1.76485 9.18079,7.96367 7.41497,13.82074 -1.76533,5.85525 -7.96416,9.18261 -13.81941,7.41727 -5.85476,-1.76714 -9.18212,-7.96597 -7.41678,-13.82122 z m 16.74019,5.04561 c 1.01733,-3.37578 -0.89922,-6.95039 -4.27501,-7.96772 -3.37578,-1.01734 -6.95087,0.90103 -7.96821,4.27682 -1.01733,3.37579 0.90103,6.95087 4.27682,7.96821 3.37349,1.01866 6.94725,-0.90201 7.9664,-4.27731 z"
       id="path2142-5-9"
       inkscape:connector-curvature="0"
       style="fill:#ffffff;stroke-width:1.87849998" />
    <path
       id="path2144-4-6"
       d="m 212.16258,198.58514 c -1.87555,0.003 -3.7342,0.46871 -5.43639,1.38245 -0.29861,0.16029 -0.58379,0.33703 -0.86426,0.52002 -1.17894,1.36289 -2.44317,2.72429 -3.79761,4.09241 -0.3855,0.70318 -0.70431,1.44843 -0.94116,2.23389 l -0.10071,0.34973 c -1.62582,6.06766 1.81432,12.24064 7.83142,14.05517 6.10238,1.83739 12.56524,-1.62932 14.40674,-7.73254 l 0.097,-0.3479 h 0.002 c 1.62631,-6.06948 -1.81385,-12.24381 -7.83325,-14.05701 -1.10661,-0.3337 -2.23831,-0.49811 -3.36365,-0.49622 z m 0.006,0.93934 c 1.03382,-0.002 2.07397,0.14919 3.09082,0.45593 5.43685,1.63572 8.66299,7.43285 7.19422,12.91443 l -0.0916,0.3186 c -1.69146,5.60862 -7.62806,8.79682 -13.23303,7.10633 -5.43637,-1.63754 -8.66483,-7.43102 -7.19606,-12.9126 l 0.0934,-0.3241 c 0.81749,-2.70976 2.64249,-4.94563 5.14527,-6.28784 1.56567,-0.83972 3.27391,-1.26772 4.99694,-1.27075 z m -0.0329,3.76099 c -2.92547,0.0278 -5.62642,1.94095 -6.51489,4.88524 l -0.0586,0.20325 c -0.96607,3.6054 1.07694,7.27335 4.65088,8.34961 1.7509,0.52751 3.60633,0.3422 5.22399,-0.52734 1.61718,-0.86773 2.79904,-2.31221 3.32703,-4.06494 l 0.0586,-0.20691 c 0.96509,-3.60177 -1.07376,-7.26835 -4.64539,-8.34594 -0.67954,-0.2047 -1.36651,-0.2994 -2.04162,-0.29297 z m 0.007,0.93933 c 0.58264,-0.006 1.1751,0.0758 1.76148,0.25268 3.03213,0.91359 4.83338,4.14413 4.01367,7.20338 l -0.0531,0.18126 c -0.45425,1.51385 -1.47464,2.75853 -2.87109,3.50648 -1.39511,0.75026 -2.99471,0.91017 -4.50806,0.45409 -3.03442,-0.91224 -4.83754,-4.14414 -4.01732,-7.20519 l 0.0513,-0.17578 c 0.76657,-2.54244 3.09841,-4.1931 5.62317,-4.21692 z"
       style="fill:#000000;stroke-width:1.8785001"
       inkscape:connector-curvature="0" />
    <path
       id="path2230-4-2"
       d="m 216.79516,181.58198 c -0.69519,2.17272 -1.54266,4.26075 -2.52136,6.30065 l 0.60424,1.49414 -1.72119,0.69397 c -1.26463,2.33298 -2.73535,4.60734 -4.42566,6.85364 l 8.39905,-3.39294 c 2.05347,-0.82667 3.12928,-3.36825 2.30163,-5.4181 z"
       style="fill:#ffffff;stroke-width:1.8785001"
       inkscape:connector-curvature="0" />
    <path
       id="path2232-8-1"
       d="m 217.00756,180.85321 c -0.14296,0.47069 -0.29122,0.93914 -0.44678,1.4026 l 2.43896,6.03698 c 0.2804,0.69551 0.32162,1.50489 0.11353,2.28149 -0.31164,1.16309 -1.11924,2.10736 -2.15881,2.52503 l -7.67761,3.09997 c -0.35358,0.48467 -0.71725,0.9678 -1.09131,1.4502 l 9.12048,-3.68226 c 1.31209,-0.52746 2.32613,-1.70692 2.71362,-3.15307 0.26011,-0.97074 0.20404,-1.99113 -0.15381,-2.87659 z m -2.4591,6.45265 c -0.17898,0.38581 -0.3581,0.77159 -0.54749,1.15355 l 0.2655,0.65919 -0.75806,0.30578 c -0.22725,0.43429 -0.46184,0.86636 -0.70312,1.29638 l 2.68432,-1.08398 z"
       style="fill:#000000;stroke-width:1.8785001"
       inkscape:connector-curvature="0" />
    <path
       id="path2294-1-7"
       d="m 212.44457,191.36896 c -1.19002,2.05071 -2.55469,4.05783 -4.08325,6.04797 l 0.8551,8.11524 c 0.13689,1.28911 1.29087,2.2238 2.58179,2.0874 1.28729,-0.13736 2.22283,-1.28541 2.0874,-2.57996 z"
       style="fill:#ffffff;stroke-width:1.8785001"
       inkscape:connector-curvature="0" />
    <path
       id="path2296-5-8"
       d="m 212.83825,190.66034 c -0.25628,0.45821 -0.52408,0.91391 -0.79651,1.3678 l 1.37512,13.06275 c 0.1095,1.02117 -0.65879,1.95529 -1.66993,2.06359 -1.03023,0.10708 -1.95836,-0.63968 -2.06542,-1.66992 l -0.90638,-8.61695 c -0.27508,0.36646 -0.54071,0.73335 -0.82763,1.09864 l 0.802,7.61536 c 0.16042,1.5424 1.55164,2.66797 3.09815,2.50671 1.16905,-0.12432 2.12228,-0.93686 2.42615,-2.07092 0.0899,-0.33568 0.11573,-0.67892 0.0788,-1.02722 l -1.50513,-14.2804 c -0.002,-0.0169 -0.007,-0.0326 -0.009,-0.0494 z"
       style="fill:#000000;stroke-width:1.8785001"
       inkscape:connector-curvature="0" />
    <path
       id="path2342-7-7"
       d="m 121.06029,82.069643 c -0.91252,0.06909 -1.73872,0.670687 -2.04712,1.593018 -0.008,0.02494 -0.0168,0.04603 -0.0238,0.07144 -0.36434,1.207312 0.29527,2.496 1.49964,2.900391 l 1.15356,0.386353 c 1.19907,-1.319288 2.23191,-2.613028 3.11462,-3.905635 l -2.77221,-0.930178 c -0.30733,-0.103256 -0.62051,-0.138384 -0.92469,-0.115359 z"
       style="fill:#ffffff;stroke-width:1.8785001"
       inkscape:connector-curvature="0" />
    <path
       id="path2344-6-5"
       d="m 121.02734,81.600893 c -1.09525,0.08353 -2.0856,0.800672 -2.44447,1.878665 -0.0194,0.04341 -0.0325,0.08766 -0.0659,0.205079 -0.3836,1.431628 0.41821,2.922768 1.82372,3.3966 l 0.95765,0.322275 c 0.23774,-0.25575 0.45955,-0.509888 0.68482,-0.763557 l -1.344,-0.45044 c -0.93887,-0.3138 -1.4729,-1.308741 -1.21765,-2.261353 0.006,-0.05503 0.008,-0.05653 0.0384,-0.11535 0.3291,-0.981441 1.39529,-1.514279 2.37854,-1.1847 l 2.64039,0.886237 c 0.18931,-0.2679 0.37827,-0.535828 0.5548,-0.803831 l -2.8949,-0.972291 c -0.36906,-0.123206 -0.74636,-0.165159 -1.11144,-0.137334 z"
       style="fill:#000000;stroke-width:1.8785001"
       inkscape:connector-curvature="0" />
    <path
       d="m 184.59442,224.84278 c 1.76485,-5.85344 7.96367,-9.18079 13.82074,-7.41498 5.85525,1.76533 9.1826,7.96416 7.41727,13.81941 -1.76533,5.85526 -7.96416,9.18261 -13.82122,7.41679 -5.85525,-1.76533 -9.18261,-7.96416 -7.41679,-13.82122 z m 16.74152,5.04791 c 1.01734,-3.37579 -0.90152,-6.94906 -4.2773,-7.96639 -3.37579,-1.01734 -6.95039,0.89921 -7.96773,4.275 -1.01733,3.37579 0.90103,6.95088 4.27682,7.96821 3.37579,1.01734 6.95087,-0.90103 7.96821,-4.27682 z"
       id="path2152-3-7"
       inkscape:connector-curvature="0"
       style="fill:#ffffff;stroke-width:1.87849998" />
    <path
       d="m 206.38144,231.03454 -0.0988,0.34692 c -1.8415,6.10322 -8.30332,9.57014 -14.40751,7.73228 -6.01709,-1.81454 -9.45604,-7.98881 -7.8307,-14.05466 l 0.0998,-0.35055 c 1.8392,-6.10189 8.30102,-9.56881 14.40521,-7.73095 6.01709,1.81454 9.45786,7.9893 7.83203,14.05696 z m -21.42976,-5.73236 c -1.46878,5.48158 1.75923,11.27456 7.19559,12.91209 5.6068,1.69098 11.54445,-1.49632 13.23591,-7.10493 l 0.0915,-0.31971 c 1.49358,-5.57412 -1.66717,-11.24795 -7.1951,-12.91391 -5.60679,-1.69098 -11.54263,1.49681 -13.23361,7.10361 z m 16.89353,4.51688 v 0 l -0.0595,0.2077 c -1.0935,3.62375 -4.92976,5.68217 -8.554,4.59048 -3.57295,-1.07988 -5.61645,-4.74684 -4.65087,-8.35042 l 0.0586,-0.20407 c 1.09302,-3.62194 4.9311,-5.67988 8.55534,-4.58819 3.57162,1.07759 5.6156,4.74274 4.65051,8.3445 z m -12.35717,-3.30915 c -0.83382,3.11185 0.92967,6.27788 4.01575,7.20787 3.12552,0.94249 6.43895,-0.83401 7.38242,-3.96315 l 0.0522,-0.18048 c 0.81923,-3.05742 -0.98145,-6.28786 -4.0154,-7.20194 -3.12733,-0.94298 -6.44076,0.83352 -7.38374,3.96085 z"
       id="path2154-0-4"
       inkscape:connector-curvature="0"
       style="fill:#000000;stroke-width:1.87849998" />
    <path
       d="m 140.97882,208.15796 c 1.76533,-5.85525 7.96416,-9.1826 13.81941,-7.41727 5.85525,1.76533 9.1826,7.96416 7.41678,13.82122 -1.76533,5.85525 -7.96416,9.18261 -13.82122,7.41679 -5.85295,-1.76666 -9.1803,-7.96549 -7.41497,-13.82074 z m 16.74019,5.04562 c 1.01733,-3.37579 -0.90103,-6.95088 -4.27682,-7.96822 -3.37579,-1.01733 -6.94906,0.90152 -7.9664,4.27731 -1.01733,3.37579 0.89922,6.95039 4.27501,7.96773 3.3753,1.01915 6.95087,-0.90104 7.96821,-4.27682 z"
       id="path2162-8-1"
       inkscape:connector-curvature="0"
       style="fill:#ffffff;stroke-width:1.87849998" />
    <path
       d="m 162.76318,214.34512 -0.0998,0.35056 c -0.89038,2.95278 -2.87971,5.38357 -5.60322,6.84556 -2.72351,1.46198 -5.8492,1.77576 -8.80017,0.88587 -6.0171,-1.81454 -9.45605,-7.98881 -7.83023,-14.05647 l 0.0988,-0.34693 c 0.89038,-2.95278 2.8797,-5.38357 5.60322,-6.84556 2.72351,-1.46198 5.84968,-1.77758 8.80066,-0.88768 6.01758,1.81272 9.45701,7.98518 7.8307,14.05465 z m -21.42613,-5.73139 c -1.46878,5.48158 1.75825,11.27819 7.19329,12.91342 2.71159,0.81798 5.58168,0.52906 8.08676,-0.81448 2.50278,-1.34222 4.32888,-3.57753 5.14636,-6.28731 l 0.0925,-0.32333 c 1.46878,-5.48158 -1.75874,-11.27638 -7.19378,-12.91161 -2.71159,-0.81797 -5.58217,-0.52724 -8.08676,0.81449 -2.50278,1.34221 -4.32888,3.57753 -5.14685,6.28912 z m 16.88942,4.51773 v 0 l -0.0595,0.20769 c -0.52799,1.75273 -1.7083,3.19648 -3.32548,4.06421 -1.61949,0.86905 -3.4758,1.05427 -5.22672,0.52677 -3.5698,-1.0771 -5.61427,-4.74043 -4.6487,-8.34401 l 0.0595,-0.2077 c 0.52799,-1.75273 1.70831,-3.19648 3.32549,-4.0642 1.61766,-0.86954 3.47398,-1.05476 5.22489,-0.52726 3.57392,1.07626 5.61658,4.7391 4.65052,8.3445 z m -12.35319,-3.30225 c -0.81972,3.05923 0.98096,6.28968 4.01358,7.20145 1.51335,0.45607 3.11407,0.29571 4.511,-0.45405 1.39463,-0.74844 2.41668,-1.99345 2.87093,-3.50728 l 0.0523,-0.18048 c 0.81972,-3.05923 -0.98096,-6.28968 -4.0154,-7.20194 -1.51335,-0.45606 -3.11407,-0.29571 -4.50919,0.45455 -1.39644,0.74795 -2.41667,1.99344 -2.87092,3.50727 z"
       id="path2164-8-8"
       inkscape:connector-curvature="0"
       style="fill:#000000;stroke-width:1.87849998" />
    <path
       d="m 109.19244,174.15856 c 1.76485,-5.85344 7.96368,-9.18079 13.82074,-7.41498 5.85344,1.76485 9.18079,7.96368 7.41546,13.81893 -1.76533,5.85525 -7.96416,9.1826 -13.81941,7.41727 -5.85476,-1.76714 -9.18212,-7.96597 -7.41679,-13.82122 z m 16.74019,5.04561 c 1.01734,-3.37579 -0.8997,-6.94857 -4.27549,-7.96591 -3.37578,-1.01734 -6.95038,0.89922 -7.96772,4.275 -1.01734,3.37579 0.90103,6.95088 4.27682,7.96821 3.3753,1.01916 6.94906,-0.90151 7.96639,-4.2773 z"
       id="path2172-4-5"
       inkscape:connector-curvature="0"
       style="fill:#ffffff;stroke-width:1.87849998" />
    <path
       d="m 130.97814,180.34802 -0.0988,0.34692 c -0.89037,2.95279 -2.8797,5.38357 -5.60321,6.84556 -2.72352,1.46199 -5.84969,1.77758 -8.80066,0.88769 -6.0171,-1.81454 -9.45605,-7.98881 -7.83071,-14.05466 l 0.0998,-0.35055 c 0.8899,-2.95097 2.87922,-5.38176 5.60274,-6.84375 2.72351,-1.46198 5.8492,-1.77576 8.80017,-0.88587 6.01758,1.81272 9.45702,7.98518 7.83071,14.05466 z m -21.42795,-5.73188 c -1.49309,5.5723 1.66585,11.24565 7.19559,12.91209 2.71159,0.81797 5.58217,0.52725 8.08676,-0.81448 2.50278,-1.34222 4.32888,-3.57753 5.14685,-6.28912 l 0.0915,-0.31971 c 1.46879,-5.48158 -1.75874,-11.27637 -7.19559,-12.91209 -2.71159,-0.81797 -5.58168,-0.52906 -8.08628,0.81267 -2.50326,1.34403 -4.32887,3.57753 -5.14636,6.28731 z m 16.89172,4.5164 v 0 l -0.0595,0.20769 c -0.52799,1.75273 -1.7083,3.19648 -3.32548,4.06421 -1.61767,0.86954 -3.47399,1.05475 -5.2249,0.52726 -3.57114,-1.07941 -5.61561,-4.74274 -4.65052,-8.3445 l 0.0596,-0.2077 c 0.52798,-1.75273 1.7083,-3.19648 3.32548,-4.0642 1.61718,-0.86773 3.47398,-1.05476 5.22671,-0.52677 3.57162,1.07759 5.61379,4.74224 4.6487,8.34401 z m -12.355,-3.30273 c -0.81924,3.05741 0.98144,6.28786 4.01539,7.20193 1.51335,0.45607 3.11407,0.29571 4.50919,-0.45454 1.39644,-0.74795 2.41667,-1.99345 2.87092,-3.50728 l 0.0523,-0.18048 c 0.83285,-3.10822 -0.92931,-6.27195 -4.01358,-7.20145 -1.51335,-0.45606 -3.11637,-0.29438 -4.511,0.45406 -1.39512,0.75025 -2.41668,1.99345 -2.87093,3.50728 z"
       id="path2174-9-9"
       inkscape:connector-curvature="0"
       style="fill:#000000;stroke-width:1.87849998" />
    <path
       d="m 84.20948,134.37225 c 1.76533,-5.85525 7.96416,-9.18261 13.82122,-7.41679 5.85344,1.76484 9.18079,7.96367 7.41497,13.82074 -1.76484,5.85343 -7.96367,9.18079 -13.81892,7.41546 -5.85476,-1.76715 -9.18212,-7.96598 -7.41727,-13.81941 z m 16.74019,5.04561 c 1.01734,-3.37579 -0.89922,-6.95039 -4.275,-7.96772 -3.37579,-1.01734 -6.95088,0.90103 -7.96821,4.27682 -1.01734,3.37578 0.90151,6.94906 4.2773,7.96639 3.3753,1.01915 6.94857,-0.8997 7.96591,-4.27549 z"
       id="path2182-8-7"
       inkscape:connector-curvature="0"
       style="fill:#ffffff;stroke-width:1.87849998" />
    <path
       d="m 105.99566,140.55989 -0.0998,0.35056 c -0.88989,2.95097 -2.87922,5.38175 -5.60273,6.84374 -2.72351,1.46199 -5.8492,1.77577 -8.79836,0.88636 -6.01709,-1.81453 -9.45834,-7.98748 -7.83252,-14.05514 l 0.0988,-0.34693 c 1.8415,-6.10322 8.30332,-9.57014 14.40751,-7.73227 6.01347,1.81356 9.4529,7.98602 7.82708,14.05368 z M 84.5682,134.8262 c -1.46879,5.48158 1.75874,11.27638 7.19559,12.9121 2.71158,0.81797 5.57987,0.52857 8.08446,-0.81316 2.50326,-1.34403 4.32888,-3.57753 5.14636,-6.28731 l 0.0925,-0.32333 c 1.4931,-5.57231 -1.66584,-11.24565 -7.19377,-12.91161 -5.60679,-1.69098 -11.54445,1.49632 -13.23591,7.10493 z m 16.89207,4.52233 c 0,0 0,0 0,0 l -0.0591,0.20588 c -1.09351,3.62376 -4.92977,5.68218 -8.55401,4.59049 -3.57114,-1.0794 -5.61561,-4.74273 -4.65051,-8.3445 l 0.0595,-0.20769 c 0.52798,-1.75273 1.71011,-3.196 3.32729,-4.06372 1.61767,-0.86954 3.47398,-1.05476 5.2249,-0.52726 3.57343,1.07808 5.61742,4.74322 4.65184,8.3468 z m -12.35584,-3.30685 c -0.81924,3.05742 0.98144,6.28787 4.01539,7.20194 3.12552,0.94249 6.43895,-0.83401 7.38242,-3.96315 l 0.0518,-0.17866 c 0.83333,-3.11004 -0.93064,-6.27425 -4.01491,-7.20376 -1.51335,-0.45606 -3.11407,-0.29571 -4.511,0.45406 -1.39463,0.74844 -2.41486,1.99393 -2.87093,3.50728 z"
       id="path2184-9-5"
       inkscape:connector-curvature="0"
       style="fill:#000000;stroke-width:1.87849998" />
    <path
       d="m 82.20081,89.68394 c 1.76533,-5.855251 7.96416,-9.182605 13.82122,-7.416788 5.85525,1.76533 9.1826,7.96416 7.41679,13.821225 -1.76533,5.855253 -7.96416,9.182603 -13.82123,7.416783 -5.85525,-1.76533 -9.18212,-7.96597 -7.41678,-13.82122 z m 16.74151,5.047914 c 1.01734,-3.375788 -0.90103,-6.950875 -4.27681,-7.968211 -3.37579,-1.017335 -6.95088,0.901032 -7.96821,4.27682 -1.01734,3.375787 0.90103,6.950874 4.27682,7.96821 3.37578,1.017337 6.95087,-0.901032 7.9682,-4.276819 z"
       id="path2202-4-3"
       inkscape:connector-curvature="0"
       style="fill:#ffffff;stroke-width:1.87849998" />
    <path
       d="m 103.98831,95.873888 -0.0988,0.346924 c -1.8415,6.103218 -8.30331,9.570138 -14.40751,7.732268 -6.01709,-1.81453 -9.45604,-7.988806 -7.8307,-14.054651 l 0.0998,-0.350553 c 0.89038,-2.952785 2.87971,-5.383571 5.60322,-6.845559 2.72351,-1.461989 5.8492,-1.775764 8.80017,-0.885871 6.01891,1.815018 9.45968,7.989781 7.83385,14.057442 z M 82.56037,90.142011 c -1.4931,5.572304 1.66584,11.245649 7.19559,12.912089 5.60679,1.69098 11.54444,-1.49632 13.23591,-7.10493 l 0.0915,-0.319706 c 1.49407,-5.575933 -1.66669,-11.249765 -7.1951,-12.913907 -2.71159,-0.817972 -5.58169,-0.52906 -8.08677,0.814485 -2.50278,1.342215 -4.32887,3.577531 -5.14636,6.287305 z m 16.89172,4.516398 v 0 l -0.0596,0.207694 c -0.52798,1.752729 -1.71011,3.195992 -3.32729,4.063718 -1.61767,0.869542 -3.47398,1.054756 -5.2249,0.527257 -3.57295,-1.079889 -5.61693,-4.745033 -4.65184,-8.346799 l 0.059,-0.20588 c 1.09351,-3.623756 4.93207,-5.683505 8.55631,-4.591817 3.57114,1.079403 5.61331,4.744061 4.64822,8.345827 z M 87.09575,91.353374 c -0.83333,3.110039 0.93064,6.274251 4.01673,7.204237 1.51335,0.456064 3.11407,0.295713 4.511,-0.454056 1.39463,-0.74844 2.41486,-1.993932 2.87093,-3.507279 l 0.0522,-0.180477 c 0.81972,-3.059233 -0.98096,-6.289678 -4.01491,-7.203751 -3.12733,-0.942983 -6.44124,0.835332 -7.38471,3.964478 z"
       id="path2204-9-8"
       inkscape:connector-curvature="0"
       style="fill:#000000;stroke-width:1.87849998" />
    <path
       style="fill:#ffffff;stroke-width:1.87849998"
       inkscape:connector-curvature="0"
       id="path2246-7-8"
       d="m 122.38982,193.99387 c 0.20555,-0.68005 0.58468,-1.30386 1.10015,-1.79779 l 8.71236,-8.39675 c 1.65217,-1.59347 4.29425,-1.54675 5.88821,0.10361 l 8.3779,8.69564 c 1.53751,1.59245 1.49344,4.34804 -0.11136,5.88809 l -8.71417,8.39626 c -0.80174,0.77118 -1.85449,1.18726 -2.96324,1.16633 -1.11467,-0.0206 -2.15416,-0.47413 -2.92534,-1.27587 l -8.37523,-8.69103 c -1.04625,-1.08159 -1.4236,-2.64905 -0.98928,-4.08849 z m 12.68757,-6.44478 -7.94903,7.66001 7.63585,7.92311 7.95084,-7.65953 z" />
    <path
       style="fill:#000000;stroke-width:1.87849998"
       inkscape:connector-curvature="0"
       id="path2248-2-3"
       d="m 147.89508,196.74592 c -0.21587,0.80563 -0.63493,1.52765 -1.2152,2.08201 l -8.71369,8.39445 c -0.88933,0.85855 -2.06133,1.32048 -3.29579,1.29698 -1.2427,-0.0218 -2.4012,-0.52477 -3.2583,-1.41954 l -8.37523,-8.69104 c -1.11924,-1.15754 -1.55416,-2.85128 -1.13604,-4.41175 l 0.0388,-0.13741 c 0.23106,-0.76072 0.65322,-1.45079 1.2243,-1.99984 l 8.71187,-8.39493 c 0.88884,-0.85674 2.06084,-1.31867 3.29991,-1.29782 1.24039,0.0231 2.39394,0.52282 3.25019,1.41347 l 8.37838,8.69383 c 1.10583,1.14228 1.52354,2.85669 1.09083,4.47159 z m -25.0565,-2.61236 c -0.36222,1.3518 -0.0172,2.69863 0.875,3.62224 l 8.37705,8.69153 c 0.68428,0.71232 1.60525,1.11468 2.59602,1.13317 0.98532,0.017 1.91786,-0.34959 2.62886,-1.03617 l 8.71417,-8.39626 c 0.45575,-0.43798 0.78701,-1.00655 0.95864,-1.64706 0.34228,-1.2774 0.007,-2.68195 -0.85933,-3.57914 l -8.37838,-8.69383 c -0.68162,-0.70773 -1.60307,-1.10827 -2.59021,-1.12578 -0.98714,-0.0175 -1.92198,0.35042 -2.63249,1.03519 l -8.71236,8.39675 c -0.45575,0.43797 -0.79171,0.98778 -0.97551,1.59392 -4.9e-4,0.002 -9.8e-4,0.004 -0.001,0.005 z m 20.54017,1.35165 -8.62526,8.31118 -8.28519,-8.59884 8.62344,-8.31167 z m -8.60068,6.9856 7.2728,-7.00885 -6.98601,-7.24918 -7.27098,7.00934 z" />
    <path
       style="fill:#ffffff;stroke-width:1.87849998"
       inkscape:connector-curvature="0"
       id="path2254-2-1"
       d="m 92.72515,156.65593 c 0.29436,-0.97518 0.93353,-1.80742 1.80238,-2.34279 l 10.28698,-6.35485 c 0.9426,-0.58562 2.05933,-0.7687 3.14408,-0.51305 1.08474,0.25566 2.00226,0.91768 2.58691,1.86391 l 6.3528,10.27282 c 1.16182,1.87685 0.52829,4.56784 -1.35498,5.73183 l -10.28927,6.35617 c -1.95325,1.20747 -4.52352,0.6024 -5.72869,-1.35218 l -6.35462,-10.27331 c -0.62777,-1.01029 -0.79062,-2.24607 -0.44559,-3.38855 z m 14.10393,-4.42194 -9.38724,5.79858 5.79206,9.36799 9.38543,-5.79906 z" />
    <path
       style="fill:#000000;stroke-width:1.87849998"
       inkscape:connector-curvature="0"
       id="path2256-6-8"
       d="m 117.77952,162.97056 c -0.31408,1.17216 -1.02034,2.14589 -1.99237,2.74696 l -10.28976,6.35799 c -1.05122,0.64987 -2.29491,0.84949 -3.49857,0.56587 -1.20728,-0.2846 -2.22744,-1.0208 -2.87864,-2.07433 l -6.3528,-10.27281 c -0.66847,-1.08343 -0.8617,-2.40903 -0.53303,-3.63563 l 0.0388,-0.13741 c 0.32765,-1.0849 1.04039,-2.01022 2.00684,-2.60501 l 10.28697,-6.35485 c 1.04397,-0.65181 2.28862,-0.85506 3.49591,-0.57046 1.20729,0.28459 2.22878,1.0231 2.87997,2.07662 l 6.35099,10.27233 c 0.64819,1.04299 0.82363,2.36966 0.48573,3.63073 z m -24.6084,-6.17179 c -0.29074,1.08507 -0.13579,2.13981 0.3956,3.00176 l 6.3528,10.27281 c 0.5186,0.83713 1.33347,1.42498 2.29385,1.6512 0.96039,0.22622 1.95234,0.0661 2.79128,-0.452 l 10.28927,-6.35617 c 1.59458,-0.98659 2.18808,-3.49189 1.2015,-5.08646 l -6.3528,-10.27281 c -0.51992,-0.83943 -1.33479,-1.42728 -2.29518,-1.6535 -0.96269,-0.22489 -1.95282,-0.0643 -2.78632,0.45527 l -10.28927,6.35618 c -0.77077,0.47414 -1.3382,1.2128 -1.59879,2.07646 -4.8e-4,0.002 -9.7e-4,0.004 -0.002,0.007 z m 20.09589,4.95488 -10.18477,6.29277 -6.28626,-10.16552 10.18525,-6.29458 z m -9.88096,4.99923 8.58741,-5.30305 -5.29604,-8.56997 -8.5879,5.30486 z" />
    <path
       style="fill:#ffffff;stroke-width:1.87849998"
       inkscape:connector-curvature="0"
       id="path2262-6-9"
       d="m 77.37937,110.00034 c 0.45752,-1.51879 1.71428,-2.6309 3.2781,-2.90032 l 11.92024,-2.05685 c 1.09314,-0.18939 2.19713,0.0597 3.10729,0.69841 0.90738,0.64181 1.51465,1.59799 1.70307,2.69476 l 2.0576,11.90293 c 0.11008,0.63432 0.0694,1.29435 -0.11507,1.91005 -0.45752,1.51879 -1.71428,2.63089 -3.2781,2.90031 l -11.92024,2.05686 c -1.09314,0.18939 -2.19713,-0.0597 -3.10729,-0.69841 -0.90738,-0.64181 -1.51464,-1.59799 -1.70307,-2.69476 l -2.05759,-11.90294 c -0.11009,-0.63431 -0.0712,-1.29483 0.11506,-1.91004 z m 15.47439,-0.2391 -10.87187,1.87491 1.87384,10.85408 10.87187,-1.8749 z" />
    <path
       style="fill:#000000;stroke-width:1.87849998"
       inkscape:connector-curvature="0"
       id="path2264-1-6"
       d="m 99.82092,122.24845 -0.0388,0.13742 c -0.50915,1.68971 -1.90885,2.92882 -3.6495,3.2267 l -11.92156,2.05456 c -1.21562,0.21103 -2.44495,-0.0639 -3.45775,-0.77676 -1.01365,-0.71696 -1.68698,-1.78224 -1.8957,-2.9992 l -2.0576,-11.90293 c -0.11381,-0.65671 -0.0831,-1.34471 0.089,-1.98704 l 0.0388,-0.13741 c 0.50915,-1.68971 1.90836,-2.927 3.6495,-3.22671 l 11.92205,-2.05636 c 1.21744,-0.21055 2.44495,0.0639 3.45726,0.77857 1.01184,0.71647 1.68565,1.77994 1.89619,2.99738 l 2.05711,11.90475 c 0.11611,0.65538 0.0836,1.34289 -0.089,1.98703 z M 77.82521,110.15092 c -0.1653,0.61693 -0.1881,1.15924 -0.10027,1.68064 l 2.0576,11.90293 c 0.16776,0.97066 0.70437,1.82039 1.51224,2.39081 0.80703,0.5663 1.78667,0.78601 2.75551,0.61776 L 95.97367,124.689 c 1.38652,-0.23914 2.50131,-1.22787 2.90902,-2.57526 l 0.0315,-0.1102 c 0.13759,-0.5135 0.16184,-1.06126 0.0727,-1.58495 l -2.05711,-11.90475 c -0.16776,-0.97066 -0.70485,-1.81858 -1.51273,-2.389 -0.80654,-0.56811 -1.78436,-0.78733 -2.75683,-0.62006 l -11.92205,2.05637 c -1.38701,0.24095 -2.50131,1.22787 -2.90902,2.57525 -0.001,0.005 -0.002,0.009 -0.004,0.0145 z m 17.4473,10.84768 -11.79775,2.03521 -2.03415,-11.77996 11.79593,-2.0357 z m -11.0317,0.94721 9.94599,-1.7146 -1.71534,-9.92869 -9.94418,1.71508 z" />
    <path
       style="fill:#ffffff;stroke-width:1.87849998"
       inkscape:connector-curvature="0"
       id="path2270-4-4"
       d="m 160.53479,226.24704 3.51283,-11.57137 c 0.32181,-1.06312 1.04284,-1.93955 2.02494,-2.46208 0.98028,-0.52302 2.10672,-0.63348 3.16985,-0.31167 l 11.56592,3.51137 c 2.19278,0.67118 3.43683,2.99596 2.77618,5.18573 l -3.51513,11.57269 c -0.66573,2.19423 -2.99644,3.43864 -5.19249,2.77242 l -11.56411,-3.51088 c -2.19472,-0.66392 -3.43961,-2.99282 -2.77799,-5.18621 z m 7.85066,-9.69532 -3.20073,10.54453 10.54452,3.20074 3.20256,-10.54404 z" />
    <path
       style="fill:#000000;stroke-width:1.87849998"
       inkscape:connector-curvature="0"
       id="path2272-9-3"
       d="m 184.07398,220.59404 -0.0397,0.14104 -3.51743,11.57402 c -0.35753,1.18191 -1.15672,2.15408 -2.24876,2.73856 -1.09337,0.58217 -2.34629,0.70737 -3.52953,0.34753 l -11.5641,-3.51088 c -2.4064,-0.73036 -3.78144,-3.20499 -3.13043,-5.63459 l 0.0388,-0.13742 3.51513,-11.57269 c 0.35851,-1.18554 1.16,-2.15903 2.25156,-2.7417 1.08974,-0.58315 2.34217,-0.70652 3.52722,-0.34621 l 11.56592,3.51137 c 2.40494,0.73581 3.77998,3.21043 3.1314,5.63097 z m -23.09225,5.79221 c -0.53918,2.01227 0.58024,4.02556 2.46349,4.59629 l 11.5641,3.51089 c 0.94205,0.28742 1.94118,0.18758 2.8143,-0.27664 0.87131,-0.46471 1.50728,-1.2414 1.79191,-2.1803 l 3.54939,-11.68604 c 0.51682,-1.9288 -0.58002,-3.90298 -2.49628,-4.48839 l -11.56411,-3.51089 c -0.94385,-0.28791 -1.94299,-0.18807 -2.812,0.27531 -0.87082,0.46289 -1.50727,1.2414 -1.79469,2.18344 l -3.51513,11.5727 c -4.9e-4,0.002 -9.8e-4,0.004 -9.8e-4,0.004 z m 18.53586,-6.94697 -3.47419,11.44169 -11.44169,-3.47419 3.47189,-11.44037 z m -4.1002,10.2724 2.9291,-9.64688 -9.64918,-2.92777 -2.9268,9.64555 z" />
    <path
       style="fill:#ffffff;stroke-width:1.87849998"
       inkscape:connector-curvature="0"
       id="path2350-6-3"
       d="m 94.97391,88.312633 c 0.21479,-0.714519 0.76899,-1.316702 1.53633,-1.560334 l 13.79051,-4.398963 c 1.23375,-0.394814 2.556,0.288147 2.94851,1.52323 0.39761,1.230612 -0.28403,2.555163 -1.52323,2.948519 l -13.7905,4.398962 c -1.23376,0.394815 -2.55601,-0.288147 -2.94852,-1.52323 -0.1507,-0.468227 -0.14625,-0.949337 -0.0131,-1.388184 z" />
    <path
       style="fill:#000000;stroke-width:1.87849998"
       inkscape:connector-curvature="0"
       id="path2352-5-3"
       d="m 113.73725,85.314205 c -0.2499,0.932649 -0.94934,1.663165 -1.86836,1.957559 l -13.79051,4.398962 c -0.71517,0.230385 -1.47779,0.166065 -2.14725,-0.180568 -0.66996,-0.344819 -1.16502,-0.928655 -1.3908,-1.646484 -0.16456,-0.510838 -0.17903,-1.05925 -0.0395,-1.580009 0.29485,-0.977004 0.98239,-1.677646 1.86703,-1.95986 l 13.79051,-4.398962 c 0.71517,-0.230384 1.47779,-0.166065 2.14725,0.180568 0.66996,0.344819 1.16502,0.928655 1.3908,1.646485 0.1654,0.514953 0.18036,1.06155 0.0408,1.582309 z m -18.31507,3.139936 c -0.10793,0.402817 -0.0976,0.763424 0.0102,1.10152 0.15322,0.480572 0.48249,0.870239 0.92836,1.100561 0.44539,0.232137 0.95368,0.27304 1.43195,0.121146 l 13.79051,-4.398962 c 0.95521,-0.306088 1.53408,-1.399522 1.21941,-2.358983 -0.15323,-0.480573 -0.4825,-0.87024 -0.92837,-1.100562 -0.44538,-0.232137 -0.95367,-0.27304 -1.43195,-0.121146 l -13.7905,4.398962 c -0.58783,0.190606 -1.04724,0.656772 -1.22813,1.25202 -4.8e-4,0.0018 -9.7e-4,0.0036 -0.001,0.0054 z" />
    <path
       style="fill:#ffffff;stroke-width:1.87849998"
       inkscape:connector-curvature="0"
       id="path2358-9-8"
       d="m 88.00892,96.662227 c 0.34988,-1.160624 1.53888,-1.874702 2.7416,-1.616611 1.26853,0.273779 2.07317,1.523997 1.80169,2.791198 l -3.07582,14.251666 c -0.27576,1.30495 -1.52581,2.07268 -2.7912,1.80169 -1.26853,-0.27378 -2.07317,-1.524 -1.80169,-2.7912 l 3.07582,-14.251665 c 0.0152,-0.06399 0.0317,-0.125686 0.0496,-0.185078 z" />
    <path
       style="fill:#000000;stroke-width:1.87849998"
       inkscape:connector-curvature="0"
       id="path2360-4-6"
       d="m 89.90009,112.3362 c -0.387,1.44433 -1.84315,2.32798 -3.31237,2.0121 -1.51871,-0.3272 -2.48906,-1.82991 -2.16186,-3.34862 l 3.1072,-14.383279 c 0.44465,-1.485287 1.89072,-2.338577 3.31724,-2.030243 1.5187,0.3272 2.48906,1.829912 2.16186,3.348616 z m -1.44144,-15.537909 -0.0376,0.14746 -3.07582,14.251669 c -0.2189,1.01291 0.42679,2.01439 1.44019,2.23148 0.9961,0.21634 1.94583,-0.3596 2.2074,-1.3358 l 0.0241,-0.10439 3.07582,-14.25167 c 0.2189,-1.012912 -0.42679,-2.014395 -1.44019,-2.231481 -0.95024,-0.205999 -1.91352,0.362418 -2.19391,1.292732 z" />
    <path
       style="fill:#ffffff;stroke-width:1.87849998"
       inkscape:connector-curvature="0"
       id="path2366-2-0"
       d="m 86.11448,119.59099 c 0.22731,-0.75395 0.82969,-1.37628 1.64443,-1.5936 1.25462,-0.33477 2.53843,0.4118 2.87188,1.66411 l 3.7459,14.09393 c 0.33888,1.25378 -0.41458,2.54158 -1.66411,2.87188 -1.25462,0.33477 -2.53844,-0.4118 -2.87188,-1.66411 l -3.7459,-14.09393 c -0.11891,-0.43443 -0.10144,-0.87705 0.0197,-1.27828 z" />
    <path
       style="fill:#000000;stroke-width:1.87849998"
       inkscape:connector-curvature="0"
       id="path2368-9-4"
       d="m 94.83455,135.08776 c -0.26109,0.97438 -1.0276,1.73749 -2.00115,1.99588 -0.72687,0.19419 -1.48339,0.0926 -2.13504,-0.28425 -0.65345,-0.37735 -1.11617,-0.98753 -1.30988,-1.71621 L 85.6398,120.99239 c -0.12733,-0.47558 -0.1271,-0.97727 7.7e-4,-1.45448 0.30688,-1.01462 1.06464,-1.74507 2.00018,-1.99225 0.72686,-0.19419 1.48569,-0.0939 2.13685,0.28474 0.65115,0.37868 1.11617,0.98753 1.30855,1.71391 l 3.74687,14.0903 c 0.12503,0.47691 0.12891,0.97775 0.002,1.45315 z m -8.2713,-15.35707 c -0.0992,0.37015 -0.0989,0.7028 -0.0139,1.01727 l 3.7482,14.0926 c 0.12853,0.48563 0.43975,0.89185 0.87205,1.14382 0.43229,0.25196 0.9374,0.31924 1.42351,0.1889 0.96714,-0.25622 1.59619,-1.32649 1.33139,-2.29787 L 90.17808,119.7833 c -0.12853,-0.48563 -0.43842,-0.88955 -0.87023,-1.14333 -0.43459,-0.25064 -0.9397,-0.31792 -1.42581,-0.18757 -0.62568,0.1649 -1.12964,0.65219 -1.31734,1.27284 -4.8e-4,0.002 -9.7e-4,0.004 -0.001,0.005 z" />
    <path
       style="fill:#ffffff;stroke-width:1.87849998"
       inkscape:connector-curvature="0"
       id="path2374-0-8"
       d="m 94.00492,142.17584 c 0.18297,-0.61025 0.61523,-1.14203 1.23404,-1.44102 1.17091,-0.55946 2.57107,-0.0657 3.13283,1.10393 l 6.30071,13.15266 c 0.55897,1.17273 0.062,2.5701 -1.10393,3.13283 -1.17091,0.55946 -2.57107,0.0657 -3.13282,-1.10393 l -6.30072,-13.15266 c -0.26325,-0.54896 -0.29278,-1.15002 -0.13011,-1.69181 z" />
    <path
       style="fill:#000000;stroke-width:1.87849998"
       inkscape:connector-curvature="0"
       id="path2376-8-8"
       d="m 105.2752,156.734 c -0.21296,0.79475 -0.76178,1.45671 -1.50373,1.81606 -1.40058,0.66905 -3.08704,0.0752 -3.75888,-1.32224 l -6.30023,-13.15449 c -0.29102,-0.60501 -0.35505,-1.29505 -0.18099,-1.94464 0.25112,-0.84286 0.79119,-1.47217 1.50372,-1.81606 0.68031,-0.32529 1.44427,-0.36758 2.15499,-0.11685 0.70891,0.25024 1.27944,0.76289 1.60341,1.44091 l 6.30253,13.15315 c 0.28871,0.60634 0.35275,1.29639 0.17918,1.94416 z M 94.4555,142.31602 c -0.13176,0.49173 -0.0889,0.94857 0.10305,1.35005 l 6.30023,13.15449 c 0.44817,0.933 1.57292,1.32967 2.50774,0.88198 0.89401,-0.43334 1.30925,-1.60562 0.88198,-2.50774 l -6.3012,-13.15085 c -0.21703,-0.45294 -0.59815,-0.79427 -1.07059,-0.9617 -0.47426,-0.16792 -0.98324,-0.14094 -1.43618,0.0761 -0.47776,0.22982 -0.83704,0.64891 -0.9872,1.15127 0.003,0.003 0.003,0.005 0.002,0.006 z" />
    <path
       style="fill:#ffffff;stroke-width:1.87849998"
       inkscape:connector-curvature="0"
       id="path2382-0-8"
       d="m 105.36993,162.09971 c 0.1385,-0.4588 0.41622,-0.87836 0.82656,-1.19042 1.03118,-0.78554 2.5055,-0.58303 3.29104,0.44815 l 8.81222,11.58914 c 0.78639,1.03529 0.58255,2.50732 -0.44814,3.29104 -1.03118,0.78554 -2.5055,0.58303 -3.29104,-0.44815 l -8.81223,-11.58914 c -0.4748,-0.62314 -0.58785,-1.40606 -0.37841,-2.10062 z" />
    <path
       style="fill:#000000;stroke-width:1.87849998"
       inkscape:connector-curvature="0"
       id="path2384-9-9"
       d="m 119.14977,175.10161 c -0.16287,0.60785 -0.51247,1.12872 -1.01558,1.51122 -0.59638,0.45475 -1.3374,0.65098 -2.08207,0.54869 -0.74696,-0.10097 -1.40936,-0.48849 -1.86495,-1.08898 l -8.81223,-11.58914 c -0.53049,-0.69835 -0.70646,-1.58759 -0.47843,-2.43858 0.19693,-0.65513 0.53924,-1.14878 1.01558,-1.51123 1.23562,-0.93885 3.00684,-0.69762 3.94751,0.53848 l 8.81404,11.58963 c 0.53001,0.70016 0.70367,1.59073 0.47613,2.43991 z m -13.3324,-12.8645 c -0.16628,0.62055 -0.0487,1.21216 0.30486,1.67834 l 8.81222,11.58914 c 0.30361,0.39835 0.74581,0.65686 1.24318,0.72401 0.49738,0.0671 0.99123,-0.0631 1.38777,-0.36716 0.80541,-0.61072 0.96357,-1.83244 0.35914,-2.63228 l -8.81404,-11.58963 c -0.30361,-0.39835 -0.7463,-0.65504 -1.24137,-0.72352 -0.49507,-0.0685 -0.99074,0.0613 -1.39139,0.36619 -0.31707,0.23981 -0.54363,0.57001 -0.6594,0.95128 0,0 -4.9e-4,0.002 -9.7e-4,0.004 z" />
    <path
       style="fill:#ffffff;stroke-width:1.87849998"
       inkscape:connector-curvature="0"
       id="path2390-8-7"
       d="m 119.92138,180.69925 c 0.1022,-0.46853 0.34655,-0.9087 0.73007,-1.25129 0.96641,-0.86318 2.45273,-0.77803 3.31542,0.1902 l 9.69062,10.86574 c 0.86221,0.97004 0.77573,2.45406 -0.19019,3.31543 -0.96641,0.86318 -2.45274,0.77803 -3.31543,-0.1902 l -9.69062,-10.86574 c -0.51829,-0.58422 -0.69488,-1.35499 -0.53987,-2.06414 z" />
    <path
       style="fill:#000000;stroke-width:1.87849998"
       inkscape:connector-curvature="0"
       id="path2392-5-7"
       d="m 134.62726,192.79992 c -0.14197,0.52983 -0.43428,1.00382 -0.84504,1.36828 -0.56025,0.50138 -1.28307,0.75305 -2.03422,0.71125 -0.75248,-0.0441 -1.44132,-0.37648 -1.94221,-0.93854 l -9.69062,-10.86574 c -0.59926,-0.67399 -0.84161,-1.59851 -0.65046,-2.47884 l 0.0319,-0.13343 c 0.14197,-0.52983 0.43331,-1.00019 0.84456,-1.36646 1.15973,-1.03309 2.94516,-0.93197 3.97824,0.22777 l 9.68881,10.86525 c 0.63502,0.71469 0.86607,1.6887 0.61908,2.61046 z m -14.22574,-12.09259 c -0.14856,0.67781 0.0128,1.29476 0.41174,1.74393 l 9.68881,10.86525 c 0.33546,0.37382 0.79513,0.59618 1.29679,0.62558 0.49983,0.0289 0.98067,-0.1398 1.35582,-0.47296 0.75454,-0.67491 0.81809,-1.90642 0.1508,-2.6531 l -9.68881,-10.86525 c -0.69097,-0.77441 -1.88049,-0.84227 -2.65442,-0.1531 -0.27158,0.24422 -0.46641,0.55764 -0.56073,0.90965 z" />
    <path
       style="fill:#ffffff;stroke-width:1.87849998"
       inkscape:connector-curvature="0"
       id="path2398-1-6"
       d="m 135.21915,197.70375 c 0.0994,-0.32732 0.27049,-0.63931 0.51742,-0.90765 0.87637,-0.95537 2.36203,-1.02015 3.3174,-0.14377 l 10.93941,10.03738 c 0.95489,0.87819 1.02015,2.36203 0.14378,3.3174 -0.87637,0.95537 -2.36203,1.02015 -3.3174,0.14378 L 135.88034,200.1135 c -0.68885,-0.62993 -0.91267,-1.57282 -0.66119,-2.40975 z" />
    <path
       style="fill:#000000;stroke-width:1.87849998"
       inkscape:connector-curvature="0"
       id="path2400-5-4"
       d="m 151.12848,209.15255 c -0.1162,0.43366 -0.33994,0.84046 -0.64442,1.17116 -0.51058,0.55553 -1.20408,0.87923 -1.95556,0.91125 -0.75196,0.0338 -1.47114,-0.22889 -2.02667,-0.73947 l -10.93941,-10.03738 c -0.77721,-0.71389 -1.09175,-1.79 -0.81899,-2.80793 0.14578,-0.48603 0.35945,-0.86246 0.64491,-1.17298 1.05132,-1.14381 2.8366,-1.22359 3.98042,-0.17227 l 10.93941,10.03739 c 0.78035,0.71668 1.09307,1.7923 0.82031,2.81023 z m -15.46056,-11.30911 c -0.19691,0.73487 0.012,1.45014 0.52854,1.92497 l 10.93941,10.03739 c 0.36975,0.34022 0.85029,0.51371 1.35188,0.49253 0.50159,-0.0212 0.96409,-0.23759 1.30432,-0.60733 0.68651,-0.7476 0.6265,-1.97527 -0.11529,-2.65439 l -10.93941,-10.03738 c -0.76331,-0.70044 -1.95575,-0.64851 -2.65571,0.11299 -0.18805,0.20826 -0.33126,0.45966 -0.41277,0.72759 -4.9e-4,0.002 -4.9e-4,0.002 -9.7e-4,0.004 z" />
    <path
       style="fill:#ffffff;stroke-width:1.87849998"
       inkscape:connector-curvature="0"
       id="path2406-4-3"
       d="m 152.72629,212.74093 c 0.0485,-0.12313 0.10799,-0.24334 0.17831,-0.36063 0.67436,-1.10868 2.11837,-1.46077 3.22621,-0.79053 l 12.68384,7.70044 c 1.11098,0.67303 1.45763,2.11558 0.78872,3.22573 -0.67436,1.10869 -2.11837,1.46078 -3.22621,0.79053 l -12.68384,-7.70044 c -0.99418,-0.60089 -1.37872,-1.82217 -0.96703,-2.8651 z" />
    <path
       style="fill:#000000;stroke-width:1.87849998"
       inkscape:connector-curvature="0"
       id="path2408-8-0"
       d="m 170.31824,222.03265 c -0.0686,0.25585 -0.17473,0.49967 -0.3121,0.72929 -0.807,1.32791 -2.54477,1.75298 -3.87135,0.94828 l -12.68565,-7.70093 c -1.15246,-0.6997 -1.66241,-2.18601 -1.15923,-3.43974 0.0562,-0.14442 0.12789,-0.28857 0.2113,-0.42569 0.39187,-0.64957 1.0105,-1.1003 1.74122,-1.27984 0.73205,-0.17724 1.4888,-0.062 2.13293,0.32842 l 12.68564,7.70093 c 1.06093,0.64211 1.58007,1.93446 1.25724,3.13928 z m -17.22139,-8.91822 c -0.21441,0.80019 0.13015,1.66264 0.8415,2.09245 l 12.68384,7.70045 c 0.88317,0.53614 2.04395,0.25402 2.58106,-0.63279 0.52354,-0.86516 0.22923,-2.06032 -0.63146,-2.57877 l -12.68746,-7.70141 c -0.42805,-0.26056 -0.93206,-0.33921 -1.41937,-0.21891 -0.48731,0.1203 -0.90066,0.42184 -1.15988,0.85218 -0.0553,0.0902 -0.10248,0.18647 -0.14289,0.28649 -0.0253,0.0652 -0.0474,0.13317 -0.0653,0.20031 z" />
    <path
       style="fill:#ffffff;stroke-width:1.87849998"
       inkscape:connector-curvature="0"
       id="path2414-3-3"
       d="m 174.72584,224.66446 c 0.34648,-1.14792 1.51685,-1.86505 2.71341,-1.62027 l 14.5409,2.94717 c 1.27109,0.25697 2.09462,1.49474 1.83536,2.76716 -0.26377,1.2965 -1.49474,2.09462 -2.76716,1.83536 l -14.5409,-2.94718 c -1.27109,-0.25696 -2.09462,-1.49474 -1.83535,-2.76715 0.0163,-0.0754 0.0334,-0.14662 0.0537,-0.21509 z" />
    <path
       style="fill:#000000;stroke-width:1.87849998"
       inkscape:connector-curvature="0"
       id="path2416-0-0"
       d="m 194.23484,229.02257 c -0.39041,1.45704 -1.7985,2.32828 -3.27852,2.0309 l -14.5409,-2.94718 c -0.73746,-0.15093 -1.37549,-0.5786 -1.79051,-1.20711 -0.41732,-0.62718 -0.56236,-1.37783 -0.41373,-2.11397 0.0105,-0.0536 0.0237,-0.11032 0.0388,-0.16657 0.44793,-1.49025 1.84859,-2.32653 3.28228,-2.03767 l 14.5409,2.94718 c 0.73746,0.15093 1.37549,0.57859 1.79051,1.20711 0.41732,0.62718 0.56236,1.37783 0.41373,2.11396 z m -19.05745,-4.22156 -0.0421,0.17154 c -0.10078,0.49225 -0.003,0.99284 0.27384,1.40943 0.27733,0.41659 0.6999,0.70484 1.19493,0.80248 l 14.5409,2.94718 c 0.9868,0.20023 1.92613,-0.38044 2.18624,-1.35119 l 0.0275,-0.1171 c 0.10029,-0.49043 0.003,-0.99103 -0.27384,-1.40943 -0.27684,-0.4184 -0.6999,-0.70484 -1.19493,-0.80248 l -14.5409,-2.94718 c -0.95861,-0.19657 -1.8921,0.36232 -2.17165,1.29675 z" />
    <path
       style="fill:#ffffff;stroke-width:1.87849998"
       inkscape:connector-curvature="0"
       id="path2422-4-9"
       d="m 198.04352,225.94937 c 0.0676,-0.44086 0.25974,-0.86778 0.58192,-1.22097 l 10.00301,-11.03614 c 0.8719,-0.96046 2.35587,-1.03346 3.31682,-0.16337 0.96276,0.87057 1.03298,2.35768 0.16338,3.31681 l -10.00301,11.03614 c -0.8719,0.96046 -2.35587,1.03347 -3.31682,0.16338 -0.60727,-0.54972 -0.85959,-1.34273 -0.7453,-2.09585 z" />
    <path
       style="fill:#000000;stroke-width:1.87849998"
       inkscape:connector-curvature="0"
       id="path2424-4-2"
       d="m 213.08931,216.0019 c -0.11474,0.42822 -0.33339,0.83054 -0.63194,1.16089 l -10.00483,11.03565 c -1.04323,1.14987 -2.82682,1.23789 -3.98081,0.1955 -0.70155,-0.63333 -1.03658,-1.57491 -0.89364,-2.51482 0.0789,-0.54867 0.32859,-1.05937 0.69633,-1.46648 l 10.0035,-11.03795 c 1.04455,-1.14757 2.82996,-1.2351 3.98262,-0.19501 0.78677,0.71451 1.10445,1.7934 0.82877,2.82222 z m -14.53959,9.81473 c -0.0175,0.0653 -0.0319,0.13343 -0.0426,0.20251 -0.0939,0.62633 0.12701,1.2534 0.59746,1.67506 0.76658,0.69549 1.95867,0.63762 2.65282,-0.13126 l 10.00483,-11.03565 c 0.67974,-0.75135 0.61429,-1.98048 -0.13077,-2.65464 -0.76707,-0.69367 -1.95916,-0.63581 -2.65465,0.13077 l -10.00349,11.03796 c -0.2015,0.22216 -0.34727,0.49038 -0.4236,0.77525 z" />
  </g>
</svg>
