<?xml version="1.0" encoding="UTF-8" standalone="no"?>
<!-- Created with Inkscape (http://www.inkscape.org/) -->

<svg
   xmlns:dc="http://purl.org/dc/elements/1.1/"
   xmlns:cc="http://creativecommons.org/ns#"
   xmlns:rdf="http://www.w3.org/1999/02/22-rdf-syntax-ns#"
   xmlns:svg="http://www.w3.org/2000/svg"
   xmlns="http://www.w3.org/2000/svg"
   xmlns:sodipodi="http://sodipodi.sourceforge.net/DTD/sodipodi-0.dtd"
   xmlns:inkscape="http://www.inkscape.org/namespaces/inkscape"
   width="337.14285"
   height="148.57143"
   id="svg3103"
   version="1.1"
   inkscape:version="0.48.2 r9819"
   sodipodi:docname="Neues Dokument 5">
  <defs
     id="defs3105" />
  <sodipodi:namedview
     id="base"
     pagecolor="#ffffff"
     bordercolor="#666666"
     borderopacity="1.0"
     inkscape:pageopacity="0.0"
     inkscape:pageshadow="2"
     inkscape:zoom="0.35"
     inkscape:cx="-12.857146"
     inkscape:cy="-371.42858"
     inkscape:document-units="px"
     inkscape:current-layer="layer1"
     showgrid="false"
     fit-margin-top="0"
     fit-margin-left="0"
     fit-margin-right="0"
     fit-margin-bottom="0"
     inkscape:window-width="1600"
     inkscape:window-height="876"
     inkscape:window-x="0"
     inkscape:window-y="24"
     inkscape:window-maximized="1" />
  <metadata
     id="metadata3108">
    <rdf:RDF>
      <cc:Work
         rdf:about="">
        <dc:format>image/svg+xml</dc:format>
        <dc:type
           rdf:resource="http://purl.org/dc/dcmitype/StillImage" />
        <dc:title></dc:title>
      </cc:Work>
    </rdf:RDF>
  </metadata>
  <g
     inkscape:label="Ebene 1"
     inkscape:groupmode="layer"
     id="layer1"
     transform="translate(-181.42857,-458.07647)">
    <g
       transform="matrix(0.90733415,0,0,1.1021298,32.857161,-111.42854)"
       style="font-size:36.29336548px;font-style:normal;font-variant:normal;font-weight:normal;font-stretch:normal;line-height:125%;letter-spacing:0px;word-spacing:0px;fill:#000000;fill-opacity:1;stroke:none;font-family:Saab;-inkscape-font-specification:Saab"
       id="text2991-7"
       inkscape:export-filename="/home/reneeb/dev/git/PerlMag/perlmag-docs/perlmag_black.png"
       inkscape:export-xdpi="90"
       inkscape:export-ydpi="90">
      <g
         id="g3067">
        <rect
           transform="scale(1.1021298,0.90733415)"
           ry="0"
           rx="0"
           y="569.505"
           x="148.57141"
           height="148.57143"
           width="337.14285"
           id="rect2995-9"
           style="fill:#000000;fill-opacity:1;stroke:none" />
        <g
           transform="scale(1.1021298,0.90733415)"
           id="text2985-6"
           style="font-size:40px;font-style:normal;font-variant:normal;font-weight:normal;font-stretch:normal;line-height:125%;letter-spacing:0px;word-spacing:0px;fill:#ffffff;fill-opacity:1;stroke:none;font-family:Saab;-inkscape-font-specification:Saab">
          <path
             id="path3045"
             style="font-size:144px;font-weight:bold;fill:#ffffff;font-family:Ubuntu;-inkscape-font-specification:Ubuntu Bold"
             d="m 206.32918,594.84677 c 14.87994,10e-5 26.30393,2.6401 34.272,7.92 7.96791,5.18409 11.95191,13.72808 11.952,25.632 -9e-5,12.00006 -4.03209,20.68805 -12.096,26.064 -8.06407,5.28004 -19.58406,7.92003 -34.56,7.92 l -7.056,0 0,33.408 -22.464,0 0,-98.352 c 4.89598,-0.9599 10.07998,-1.6319 15.552,-2.016 5.47197,-0.3839 10.27196,-0.5759 14.4,-0.576 m 1.44,19.152 c -1.63204,8e-5 -3.26404,0.0481 -4.896,0.144 -1.53604,0.0961 -2.88004,0.19208 -4.032,0.288 l 0,28.8 7.056,0 c 7.77595,5e-5 13.63194,-1.05594 17.568,-3.168 3.93594,-2.11194 5.90393,-6.04794 5.904,-11.808 -7e-5,-2.78393 -0.52807,-5.08793 -1.584,-6.912 -0.96006,-1.82392 -2.40006,-3.26392 -4.32,-4.32 -1.82406,-1.15192 -4.08006,-1.91992 -6.768,-2.304 -2.68805,-0.47992 -5.66405,-0.71992 -8.928,-0.72"
             inkscape:connector-curvature="0" />
          <path
             id="path3047"
             style="font-size:144px;font-weight:bold;fill:#ffffff;font-family:Ubuntu;-inkscape-font-specification:Ubuntu Bold"
             d="m 261.89968,658.49477 c -10e-6,-6.71995 1.00799,-12.57595 3.024,-17.568 2.11199,-5.08794 4.84798,-9.31193 8.208,-12.672 3.35998,-3.35993 7.19997,-5.90393 11.52,-7.632 4.41596,-1.72792 8.92796,-2.59192 13.536,-2.592 10.75194,8e-5 19.24794,3.31208 25.488,9.936 6.23992,6.52806 9.35992,16.17605 9.36,28.944 -8e-5,1.24804 -0.0481,2.64004 -0.144,4.176 -0.0961,1.44003 -0.19208,2.73603 -0.288,3.888 l -48.672,0 c 0.47997,4.41603 2.54397,7.92002 6.192,10.512 3.64796,2.59202 8.54395,3.88802 14.688,3.888 3.93594,2e-5 7.77594,-0.33598 11.52,-1.008 3.83993,-0.76798 6.95993,-1.67998 9.36,-2.736 l 2.88,17.424 c -1.15207,0.576 -2.68807,1.152 -4.608,1.728 -1.92007,0.576 -4.08007,1.056 -6.48,1.44 -2.30406,0.48 -4.80006,0.864 -7.488,1.152 -2.68805,0.288 -5.37605,0.432 -8.064,0.432 -6.81604,0 -12.76804,-1.008 -17.856,-3.024 -4.99203,-2.016 -9.16802,-4.75199 -12.528,-8.208 -3.26402,-3.55199 -5.71201,-7.72798 -7.344,-12.528 -1.53601,-4.79997 -2.30401,-9.98397 -2.304,-15.552 m 50.4,-8.208 c -0.0961,-1.82395 -0.43206,-3.59995 -1.008,-5.328 -0.48006,-1.72795 -1.29606,-3.26394 -2.448,-4.608 -1.05605,-1.34394 -2.44805,-2.44794 -4.176,-3.312 -1.63205,-0.86394 -3.69605,-1.29594 -6.192,-1.296 -2.40004,6e-5 -4.46404,0.43206 -6.192,1.296 -1.72804,0.76806 -3.16804,1.82406 -4.32,3.168 -1.15203,1.34406 -2.06403,2.92805 -2.736,4.752 -0.57603,1.72805 -1.00803,3.50405 -1.296,5.328 l 28.368,0"
             inkscape:connector-curvature="0" />
          <path
             id="path3049"
             style="font-size:144px;font-weight:bold;fill:#ffffff;font-family:Ubuntu;-inkscape-font-specification:Ubuntu Bold"
             d="m 395.24143,639.05477 c -1.92006,-0.47994 -4.17605,-0.95994 -6.768,-1.44 -2.59205,-0.57594 -5.37605,-0.86394 -8.352,-0.864 -1.34404,6e-5 -2.97604,0.14406 -4.896,0.432 -1.82404,0.19206 -3.21603,0.43206 -4.176,0.72 l 0,57.888 -21.456,0 0,-71.712 c 3.83998,-1.34393 8.35198,-2.59192 13.536,-3.744 5.27997,-1.24792 11.13596,-1.87192 17.568,-1.872 1.15196,8e-5 2.54395,0.0961 4.176,0.288 1.63195,0.0961 3.26395,0.28808 4.896,0.576 1.63195,0.19208 3.26394,0.48008 4.896,0.864 1.63194,0.28808 3.02394,0.67208 4.176,1.152 l -3.6,17.712"
             inkscape:connector-curvature="0" />
          <path
             id="path3051"
             style="font-size:144px;font-weight:bold;fill:#ffffff;font-family:Ubuntu;-inkscape-font-specification:Ubuntu Bold"
             d="m 440.58343,697.23077 c -6.24004,-0.096 -11.32803,-0.768 -15.264,-2.016 -3.84002,-1.248 -6.91202,-2.97599 -9.216,-5.184 -2.20802,-2.30399 -3.74401,-5.03999 -4.608,-8.208 -0.76801,-3.26398 -1.15201,-6.91198 -1.152,-10.944 l 0,-83.376 21.456,-3.456 0,82.512 c -3e-5,1.92003 0.14397,3.64803 0.432,5.184 0.28797,1.53602 0.81596,2.83202 1.584,3.888 0.86396,1.05602 2.06396,1.92002 3.6,2.592 1.53596,0.67202 3.59996,1.10402 6.192,1.296 l -3.024,17.712"
             inkscape:connector-curvature="0" />
        </g>
        <rect
           transform="scale(1.1021298,0.90733415)"
           ry="18.57143"
           rx="14.294862"
           y="661.50507"
           x="342"
           height="42.857143"
           width="122.85715"
           id="rect2989-5"
           style="fill:#000000;fill-opacity:1;stroke:none" />
        <path
           id="path3054"
           style="font-weight:bold;fill:#d45500;-inkscape-font-specification:Saab Bold"
           d="m 387.27315,607.4491 8.68347,0 6.02526,14.15937 6.06071,-14.15937 8.66575,0 0,26.458 -6.45058,0 0,-19.35173 -6.09615,14.2657 -4.32401,0 -6.09615,-14.2657 0,19.35173 -6.4683,0 0,-26.458"
           inkscape:connector-curvature="0" />
        <path
           id="path3056"
           style="font-weight:bold;fill:#d45500;-inkscape-font-specification:Saab Bold"
           d="m 439.4803,629.08689 -10.66826,0 -1.68353,4.82021 -6.85817,0 9.79992,-26.458 8.1341,0 9.79992,26.458 -6.85817,0 -1.66581,-4.82021 m -8.96701,-4.90882 7.24804,0 -3.61516,-10.52649 -3.63288,10.52649"
           inkscape:connector-curvature="0" />
        <path
           id="path3058"
           style="font-weight:bold;fill:#d45500;-inkscape-font-specification:Saab Bold"
           d="m 475.27747,631.94003 c -1.70128,0.827 -3.46751,1.44725 -5.29869,1.86075 -1.83123,0.41349 -3.72151,0.62024 -5.67084,0.62024 -4.40673,0 -7.89783,-1.22868 -10.47333,-3.68604 -2.57551,-2.46917 -3.86326,-5.8126 -3.86326,-10.0303 0,-4.26492 1.31138,-7.62016 3.93415,-10.06573 2.62275,-2.44553 6.21428,-3.6683 10.77459,-3.66833 1.7603,3e-5 3.44383,0.16543 5.05059,0.4962 1.61853,0.33083 3.14256,0.82112 4.57211,1.47087 l 0,5.47591 c -1.4768,-0.83879 -2.94767,-1.46495 -4.41262,-1.87847 -1.45317,-0.41347 -2.91223,-0.62022 -4.37718,-0.62025 -2.71729,3e-5 -4.81431,0.76204 -6.29108,2.28606 -1.46498,1.51224 -2.19746,3.68016 -2.19745,6.50374 -10e-6,2.79999 0.70884,4.962 2.12656,6.48603 1.4177,1.52404 3.43203,2.28606 6.04299,2.28605 0.70884,10e-6 1.36453,-0.0413 1.96707,-0.12405 0.61432,-0.0945 1.16368,-0.23628 1.64809,-0.42531 l 0,-5.1392 -4.16452,0 0,-4.57211 10.63282,0 0,12.72394"
           inkscape:connector-curvature="0" />
      </g>
    </g>
  </g>
</svg>
