<?xml version="1.0"?><svg width="595.276" height="841.89" xmlns="http://www.w3.org/2000/svg">
 <title>pipe wrench</title>
 <metadata id="metadata19975">image/svg+xml</metadata>

 <g>
  <title>Layer 1</title>
  <g id="g19955">
   <g id="g19957">
    <path id="path19959" d="m169.423004,114.181c23.049988,-16.132004 57.622009,-11.576004 102.865997,12.445999c3.139984,1.667007 4.973999,4.716995 4.973999,8.272003l0,12.919998l-2.394012,1.979996l-2.393982,-1.979996l-2.394012,1.979996l-2.393982,-1.979996l-2.394012,1.979996l-2.393005,-1.979996l-2.393982,1.979996l-2.394012,-1.979996l-2.394012,1.979996l-2.393982,-1.979996l-2.394012,1.979996l-2.393982,-1.979996l-2.393005,1.979996l-2.394012,-1.979996l-2.393982,1.979996l-2.394012,-1.979996l-2.394012,1.979996l-2.393982,-1.979996l-2.394012,1.979996l-2.393005,-1.979996l-2.393982,1.979996l-2.394012,-1.979996l-2.393982,1.979996l-2.394012,-1.979996l-2.394012,1.979996l-2.393982,-1.979996l-2.393005,1.979996l-2.394012,-1.979996l-2.393982,1.979996l-2.394012,-1.979996l-1.040985,0c-2.063995,0 -3.746002,1.682007 -3.746002,3.746002l0,226.118011c0,12.59198 -10.302002,22.892975 -22.893005,22.892975l0,0c-12.59201,0 -22.893005,-10.300995 -22.893005,-22.892975c0,-85.422028 0,-146.064026 0,-229.240021c0,-16.850998 -0.588989,-23.666992 14.549011,-34.261993z"/>
    <path id="path19961" d="m149.020004,209.100006l63.533005,-10.660004l1.091003,0.21199l-1.091003,5.612015l59.753998,11.61499c0.446991,0.227997 0.93399,0.372009 1.43399,0.423004l0,208.061005l-8.804993,0l0,-167.363007c0,-10.460999 -15.848999,-10.459991 -15.848999,0l0,167.363007l-30.812012,0c0.485016,-21.679993 -1.144989,-50.485992 -3.080994,-55.744019c-5.240997,-14.234985 -43.751007,-13.425995 -40.949005,-32.578003l38.308014,0l0,-36.776978l-54.022003,0c-5.384003,0 -10.01001,-2.601013 -12.806,-7.201996c-16.076004,-26.45401 -17.396011,-52.857025 -7.928009,-74.249008c2.100006,-4.746002 6.104004,-7.854004 11.223007,-8.712997zm113.380997,12.85498c1.701996,0 3.082001,1.380005 3.082001,3.082001c0,1.701019 -1.380005,3.081024 -3.082001,3.081024c-1.700989,0 -3.080994,-1.380005 -3.080994,-3.081024c0,-1.701996 1.380005,-3.082001 3.080994,-3.082001z"/>
    <path id="path19963" d="m143.860992,303.641998l63.408997,0l0,28.222015l-63.408997,0l0,-28.222015z"/>
    <path id="path19965" d="m212.553009,204.264008l60.135986,11.688995l3.684998,-18.959l-1.41098,-2.238007l-2.347015,1.508011l-1.411987,-2.238007l-2.347015,1.507004l-1.41098,-2.238007l-2.348022,1.507996l-1.410004,-2.237991l-2.347992,1.507004l-1.411011,-2.238007l-2.346985,1.507996l-1.411987,-2.238998l-2.347015,1.507996l-1.411011,-2.237991l-2.347992,1.507004l-1.41098,-2.238007l-2.347015,1.507996l-1.411011,-2.237991l-2.346985,1.507004l-1.412018,-2.238007l-2.346985,1.507996l-1.411011,-2.238998l-2.347992,1.507996l-1.411011,-2.237991l-2.346985,1.507996l-1.411011,-2.238998l-2.347992,1.507996l-1.410004,-2.237991l-2.347992,1.507004l-1.411011,-2.238007l-2.346985,1.507996l-1.411011,-2.237991l-2.347992,1.506989l-3.684998,18.959015z"/>
    <path id="path19967" d="m213.881012,424.363007l64.253998,0l0,224.952972c0,35.080017 -13.012024,63.782043 -28.914001,63.782043l-6.425995,0c-15.902008,0 -28.914001,-28.702026 -28.914001,-63.782043l0,-224.952972zm32.126984,213.892975c5.347992,0 9.684998,10.843018 9.684998,24.213989c0,13.370056 -4.337006,24.213013 -9.684998,24.213013c-5.347992,0 -9.686005,-10.842957 -9.686005,-24.213013c0,-13.370972 4.338013,-24.213989 9.686005,-24.213989z"/>
    <path id="path19969" d="m249.087006,424.363007l15.848999,0l0,195.634979c0,3.611023 -2.945007,6.55603 -6.556,6.55603l-2.738007,0c-3.609985,0 -6.554993,-2.945007 -6.554993,-6.55603l0,-195.634979z"/>
   </g>
  </g>
 </g>
</svg>